<?xml version="1.0" encoding="UTF-8"?>
<!-- Generated by Pixelmator Pro 2.4.3 -->
<svg width="224" height="224" viewBox="0 0 224 224" xmlns="http://www.w3.org/2000/svg" xmlns:xlink="http://www.w3.org/1999/xlink">
    <g id="Background">
        <path id="Path" fill="#293241" fill-rule="evenodd" stroke="none" opacity="0" d="M -4e-06 0.005096 L 224 0.005096 L 224 0.005096 L 224 224.005005 L 224 224.005005 L -4e-06 224.005005 L -4e-06 224.005005 L -4e-06 0.005096 L -4e-06 0.005096 Z"/>
        <path id="path1" fill="#ffffff" fill-rule="evenodd" stroke="none" opacity="0" d="M -4e-06 0.005096 L 224 0.005096 L 224 0.005096 L 224 224.005005 L 224 224.005005 L -4e-06 224.005005 L -4e-06 224.005005 L -4e-06 0.005096 L -4e-06 0.005096 Z"/>
        <path id="path2" fill="#ffffff" fill-rule="evenodd" stroke="none" opacity="0" d="M 219 108 C 219 111 219 124 219 124 C 219 124 219 124 214 127 L 119 184 C 114 187 113 187 112 187 C 111 187 110 187 105 184 L 10 127 C 5 124 5 124 5 124 C 5 124 5 109 5 108 C 5 108 5 113 10 116 L 105 173 C 110 176 111 176 112 176 C 113 176 114 176 119 173 L 214 116 C 219 113 219 108 219 108 Z"/>
        <path id="path3" fill="#ffffff" fill-rule="evenodd" stroke="none" opacity="0" d="M 112 32 L 182 74 L 112 116 L 42 74 L 112 32 Z"/>
    </g>
    <g id="Logo-bw">
        <path id="path4" fill="#e5e5e5" fill-rule="evenodd" stroke="none" visibility="hidden" d="M 219 119.002998 L 219 149.003006 C 219 154.003006 219 154.003006 214 157.003006 L 119 214.003006 C 114 217.003006 113 217.003006 112 217.003006 C 111 217.003006 110 217.003006 105 214.003006 L 10 157.003006 C 5 154.003006 5 154.003006 5 149.003006 L 5 119.002998 C 5 124.002998 5 124.002998 10 127.002998 L 105 184.003006 C 110 187.003006 111 187.003006 112 187.003006 C 113 187.003006 114 187.003006 119 184.003006 L 214 127.002998 C 219 124.002998 219 124.002998 219 119.002998 Z"/>
        <path id="path5" fill="#7b7b7b" fill-rule="evenodd" stroke="none" visibility="hidden" d="M 219 74.002701 L 219 108.002998 C 219 113.002998 219 113.002998 214 116.002998 L 119 173.003006 C 114 176.003006 113 176.003006 112 176.003006 C 111 176.003006 110 176.003006 105 173.003006 L 10 116.002998 C 5 113.002998 5 113.002998 5 108.002998 C 5 108.002998 5 73.002701 5 74.002701 C 5 75.002701 5 79.002701 10 82.002701 L 105 139.003006 C 110 142.003006 111 142.003006 112 142.003006 C 113 142.003006 114 142.003006 119 139.003006 L 214 82.002701 C 219 79.002701 219 75.002701 219 74.002701 Z"/>
        <path id="path6" fill="#5a5a5a" fill-rule="evenodd" stroke="none" visibility="hidden" d="M 219 74.002701 C 219 73.002701 219 108.002998 219 108.002998 C 219 113.002998 219 113.002998 214 116.002998 L 119 173.003006 C 114 176.003006 113 176.003006 112 176.003006 L 112 142.003006 C 113 142.003006 114 142.003006 119 139.003006 L 214 82.002701 C 219 79.002701 219 75.002701 219 74.002701 Z"/>
        <path id="path7" fill="#bababa" fill-rule="evenodd" stroke="none" visibility="hidden" d="M 10 66.002701 L 105 9.002716 C 110 6.002716 111.013 5.982117 112 6.002716 C 113.013 6.023865 114 6.002716 119 9.002716 L 214 66.002701 C 219 69.002701 219 74.002701 219 74.002701 C 219 74.002701 219 79.002701 214 82.002701 L 119 139.003006 C 114 142.003006 113 142.003006 112 142.003006 C 111 142.003006 110 142.003006 105 139.003006 L 10 82.002701 C 5 79.002701 5 75.002701 5 74.002701 C 5 73.002701 5 69.002701 10 66.002701 Z M 42 74.002701 L 112 116.002998 L 182 74.002701 L 112 32.002701 L 42 74.002701 Z"/>
        <path id="path8" fill="#8d8d8d" fill-rule="evenodd" stroke="none" visibility="hidden" d="M 112 6.002716 C 113 6.002716 114 6.002716 119 9.002716 L 214 66.002701 C 219 69.002701 219 73.002701 219 74.002701 C 219 75.002701 219 79.002701 214 82.002701 L 119 139.003006 C 114 142.003006 113 142.003006 112 142.003006 L 112 116.002998 L 182 74.002701 L 112 32.002701 L 112 6.002716 Z"/>
    </g>
    <g id="Logo-copy">
        <path id="path9" fill="#e59215" fill-rule="evenodd" stroke="none" d="M 219 119.002998 L 219 149.003006 C 219 154.003006 219 154.003006 214 157.003006 L 119 214.003006 C 114 217.003006 113 217.003006 112 217.003006 C 111 217.003006 110 217.003006 105 214.003006 L 10 157.003006 C 5 154.003006 5 154.003006 5 149.003006 L 5 119.002998 C 5 124.002998 5 124.002998 10 127.002998 L 105 184.003006 C 110 187.003006 111 187.003006 112 187.003006 C 113 187.003006 114 187.003006 119 184.003006 L 214 127.002998 C 219 124.002998 219 124.002998 219 119.002998 Z"/>
        <path id="path10" fill="#26587b" fill-rule="evenodd" stroke="none" d="M 219 74.002701 L 219 108.002998 C 219 113.002998 219 113.002998 214 116.002998 L 119 173.003006 C 114 176.003006 113 176.003006 112 176.003006 C 111 176.003006 110 176.003006 105 173.003006 L 10 116.002998 C 5 113.002998 5 113.002998 5 108.002998 C 5 108.002998 5 73.002701 5 74.002701 C 5 75.002701 5 79.002701 10 82.002701 L 105 139.003006 C 110 142.003006 111 142.003006 112 142.003006 C 113 142.003006 114 142.003006 119 139.003006 L 214 82.002701 C 219 79.002701 219 75.002701 219 74.002701 Z"/>
        <path id="path11" fill="#1a415a" fill-rule="evenodd" stroke="none" d="M 219 74.002701 C 219 73.002701 219 108.002998 219 108.002998 C 219 113.002998 219 113.002998 214 116.002998 L 119 173.003006 C 114 176.003006 113 176.003006 112 176.003006 L 112 142.003006 C 113 142.003006 114 142.003006 119 139.003006 L 214 82.002701 C 219 79.002701 219 75.002701 219 74.002701 Z"/>
        <path id="path12" fill="#5b9bba" fill-rule="evenodd" stroke="none" d="M 10 66.002701 L 105 9.002716 C 110 6.002716 111.013 5.982117 112 6.002716 C 113.013 6.023865 114 6.002716 119 9.002716 L 214 66.002701 C 219 69.002701 219 74.002701 219 74.002701 C 219 74.002701 219 79.002701 214 82.002701 L 119 139.003006 C 114 142.003006 113 142.003006 112 142.003006 C 111 142.003006 110 142.003006 105 139.003006 L 10 82.002701 C 5 79.002701 5 75.002701 5 74.002701 C 5 73.002701 5 69.002701 10 66.002701 Z M 42 74.002701 L 112 116.002998 L 182 74.002701 L 112 32.002701 L 42 74.002701 Z"/>
        <path id="path13" fill="#38728d" fill-rule="evenodd" stroke="none" d="M 112 6.002716 C 113 6.002716 114 6.002716 119 9.002716 L 214 66.002701 C 219 69.002701 219 73.002701 219 74.002701 C 219 75.002701 219 79.002701 214 82.002701 L 119 139.003006 C 114 142.003006 113 142.003006 112 142.003006 L 112 116.002998 L 182 74.002701 L 112 32.002701 L 112 6.002716 Z"/>
    </g>
    <g id="Top-old">
        <path id="path14" fill="#e59215" fill-rule="evenodd" stroke="none" visibility="hidden" d="M 98 97.002701 L 103 100.002998 L 143 76.002701 L 138 73.002701 L 98 97.002701 Z"/>
        <path id="path15" fill="#e59215" fill-rule="evenodd" stroke="none" visibility="hidden" d="M 117 73.002701 L 88 91.002701 L 83 88.002701 L 113 70.002701 L 117 73.002701 Z"/>
        <path id="path16" fill="#e59215" fill-rule="evenodd" stroke="none" visibility="hidden" d="M 148 70.002701 L 122 67.002701 L 123 64.002701 L 149 67.002701 L 148 70.002701 Z"/>
        <path id="path17" fill="#e59215" fill-rule="evenodd" stroke="none" visibility="hidden" d="M 88 73.002701 L 73 82.002701 L 68 79.002701 L 83 70.002701 L 88 73.002701 Z"/>
        <path id="path18" fill="#e59215" fill-rule="evenodd" stroke="none" visibility="hidden" d="M 122 67.002701 L 93 67.002701 L 94 64.002701 L 123 64.002701 L 122 67.002701 Z"/>
        <path id="path19" fill="#e59215" fill-rule="evenodd" stroke="none" visibility="hidden" d="M 144 68.502701 C 144 66.017395 146.014999 64.002701 148.5 64.002701 C 150.985001 64.002701 153 66.017395 153 68.502701 C 153 70.988007 150.985001 73.002701 148.5 73.002701 C 146.014999 73.002701 144 70.988007 144 68.502701 Z"/>
        <path id="path20" fill="#e59215" fill-rule="evenodd" stroke="none" visibility="hidden" d="M 118 65.502701 C 118 63.017395 120.014999 61.002701 122.5 61.002701 C 124.985001 61.002701 127 63.017395 127 65.502701 C 127 67.988007 124.985001 70.002701 122.5 70.002701 C 120.014999 70.002701 118 67.988007 118 65.502701 Z"/>
        <path id="path21" fill="#e59215" fill-rule="evenodd" stroke="none" visibility="hidden" d="M 89 65.502701 C 89 63.017395 91.014702 61.002701 93.5 61.002701 C 95.985298 61.002701 98 63.017395 98 65.502701 C 98 67.988007 95.985298 70.002701 93.5 70.002701 C 91.014702 70.002701 89 67.988007 89 65.502701 Z"/>
    </g>
    <g id="Top-copy">
        <path id="path22" fill="#e59215" fill-rule="evenodd" stroke="#e59215" stroke-linecap="round" stroke-linejoin="round" d="M 97 101.002998 L 107 107 L 129 94 L 119 88 L 97 101.002998 Z"/>
        <path id="path23" fill="#e59215" fill-rule="evenodd" stroke="#e59215" stroke-linecap="round" stroke-linejoin="round" d="M 147 59 L 87 95 L 77 89.002701 L 137 53 L 147 59 Z"/>
        <path id="path24" fill="#e59215" fill-rule="evenodd" stroke="#e59215" stroke-linecap="round" stroke-linejoin="round" d="M 107 59 L 67 83 L 57 77 L 97 53 L 107 59 Z"/>
    </g>
</svg>
