<?xml version="1.0" encoding="UTF-8" standalone="no"?> <!-- Created with Vectornator for iOS (http://vectornator.io/) --><!DOCTYPE svg PUBLIC "-//W3C//DTD SVG 1.1//EN" "http://www.w3.org/Graphics/SVG/1.1/DTD/svg11.dtd">
<svg style="fill-rule:evenodd;clip-rule:evenodd;stroke-linecap:round;stroke-linejoin:round;" xmlns:vectornator="http://vectornator.io" xmlns:xlink="http://www.w3.org/1999/xlink" xmlns="http://www.w3.org/2000/svg" xml:space="preserve" version="1.1" viewBox="0 0 150 150">
<metadata>
<vectornator:setting key="RulersVisible" value="1"/>
<vectornator:setting key="DisplayWhiteBackground" value="0"/>
<vectornator:setting key="Units" value="Points"/>
<vectornator:setting key="New" value="1"/>
<vectornator:setting key="DynamicGuides" value="1"/>
<vectornator:setting key="GuidesVisible" value="1"/>
<vectornator:setting key="CMYKEnabledKey" value="0"/>
<vectornator:setting key="SnapToGuides" value="1"/>
<vectornator:setting key="GridSpacing" value="1"/>
</metadata>
<defs/>
<g id="Background" vectornator:layerName="Background" visibility="hidden">
<path d="M-1.28468e-06+2.52594e-06L150+2.52594e-06L150+150L-1.28468e-06+150L-1.28468e-06+2.52594e-06Z" opacity="1" fill="#006284"/>
</g>
<g id="layer1" vectornator:layerName="layer1">
<g opacity="1">
<path d="M46.3282+85.537L44.0061+85.537L44.0061+89.4069C44.0061+89.6469+44.0121+89.8839+44.0241+90.1179C44.0361+90.3519+44.0811+90.5619+44.1591+90.7479C44.2371+90.9339+44.3571+91.0839+44.5192+91.1979C44.6812+91.3119+44.9182+91.3689+45.2302+91.3689C45.4222+91.3689+45.6202+91.3509+45.8242+91.3149C46.0282+91.2789+46.2142+91.2129+46.3822+91.1169L46.3822+92.5929C46.1902+92.7009+45.9412+92.7759+45.6352+92.8179C45.3292+92.8599+45.0922+92.8809+44.9242+92.8809C44.3001+92.8809+43.8171+92.7939+43.4751+92.6199C43.1331+92.4459+42.8811+92.2209+42.7191+91.9449C42.5571+91.6689+42.4611+91.3599+42.4311+91.0179C42.4011+90.6759+42.3861+90.3309+42.3861+89.9829L42.3861+85.537L40.5141+85.537L40.5141+84.133L42.3861+84.133L42.3861+81.7391L44.0061+81.7391L44.0061+84.133L46.3282+84.133L46.3282+85.537Z" opacity="1" fill="#ffffff"/>
<path d="M48.5422+84.133L50.1623+84.133L50.1623+92.6649L48.5422+92.6649L48.5422+84.133ZM48.1642+81.0731C48.1642+80.7491+48.2812+80.4701+48.5152+80.2361C48.7492+80.0021+49.0282+79.8851+49.3522+79.8851C49.6763+79.8851+49.9553+80.0021+50.1893+80.2361C50.4233+80.4701+50.5403+80.7491+50.5403+81.0731C50.5403+81.3971+50.4233+81.6761+50.1893+81.9101C49.9553+82.1441+49.6763+82.2611+49.3522+82.2611C49.0282+82.2611+48.7492+82.1441+48.5152+81.9101C48.2812+81.6761+48.1642+81.3971+48.1642+81.0731Z" opacity="1" fill="#ffffff"/>
<path d="M61.2865+92.6649L59.6665+92.6649L59.6665+91.4409L59.6305+91.4409C59.3184+91.8969+58.8894+92.2509+58.3434+92.5029C57.7974+92.7549+57.2364+92.8809+56.6604+92.8809C56.0004+92.8809+55.4034+92.7669+54.8694+92.5389C54.3353+92.3109+53.8793+91.9929+53.5013+91.5849C53.1233+91.1769+52.8323+90.7029+52.6283+90.1629C52.4243+89.6229+52.3223+89.0349+52.3223+88.3989C52.3223+87.763+52.4243+87.172+52.6283+86.626C52.8323+86.08+53.1233+85.606+53.5013+85.204C53.8793+84.802+54.3353+84.487+54.8694+84.259C55.4034+84.031+56.0004+83.917+56.6604+83.917C57.2724+83.917+57.8484+84.046+58.3884+84.304C58.9284+84.562+59.3425+84.913+59.6305+85.357L59.6665+85.357L59.6665+79.0571L61.2865+79.0571L61.2865+92.6649ZM56.8584+91.3689C57.2904+91.3689+57.6804+91.2939+58.0284+91.1439C58.3764+90.9939+58.6704+90.7899+58.9104+90.5319C59.1504+90.2739+59.3365+89.9619+59.4685+89.5959C59.6005+89.2299+59.6665+88.8309+59.6665+88.3989C59.6665+87.967+59.6005+87.568+59.4685+87.202C59.3365+86.836+59.1504+86.524+58.9104+86.266C58.6704+86.008+58.3764+85.804+58.0284+85.654C57.6804+85.504+57.2904+85.429+56.8584+85.429C56.4264+85.429+56.0364+85.504+55.6884+85.654C55.3404+85.804+55.0464+86.008+54.8064+86.266C54.5664+86.524+54.3804+86.836+54.2483+87.202C54.1163+87.568+54.0503+87.967+54.0503+88.3989C54.0503+88.8309+54.1163+89.2299+54.2483+89.5959C54.3804+89.9619+54.5664+90.2739+54.8064+90.5319C55.0464+90.7899+55.3404+90.9939+55.6884+91.1439C56.0364+91.2939+56.4264+91.3689+56.8584+91.3689Z" opacity="1" fill="#ffffff"/>
<path d="M62.7085+84.133L64.5806+84.133L67.1186+90.7929L67.1546+90.7929L69.5667+84.133L71.3127+84.133L67.2626+94.5008C67.1186+94.8728+66.9686+95.2118+66.8126+95.5178C66.6566+95.8238+66.4706+96.0848+66.2546+96.3008C66.0386+96.5168+65.7776+96.6848+65.4716+96.8048C65.1656+96.9248+64.7906+96.9848+64.3466+96.9848C64.1065+96.9848+63.8635+96.9698+63.6175+96.9398C63.3715+96.9098+63.1345+96.8468+62.9065+96.7508L63.1045+95.2748C63.4285+95.4068+63.7525+95.4728+64.0765+95.4728C64.3286+95.4728+64.5416+95.4398+64.7156+95.3738C64.8896+95.3078+65.0396+95.2118+65.1656+95.0858C65.2916+94.9598+65.3966+94.8128+65.4806+94.6448C65.5646+94.4768+65.6486+94.2848+65.7326+94.0688L66.2546+92.7189L62.7085+84.133Z" opacity="1" fill="#ffffff"/>
<path d="M77.2708+86.275C77.0788+86.035+76.8418+85.834+76.5598+85.672C76.2778+85.51+75.9328+85.429+75.5248+85.429C75.1408+85.429+74.8078+85.51+74.5258+85.672C74.2438+85.834+74.1027+86.071+74.1027+86.383C74.1027+86.635+74.1837+86.839+74.3458+86.995C74.5078+87.151+74.6998+87.277+74.9218+87.373C75.1438+87.469+75.3808+87.541+75.6328+87.589C75.8848+87.637+76.1008+87.679+76.2808+87.715C76.6288+87.799+76.9558+87.901+77.2618+88.021C77.5678+88.141+77.8318+88.2969+78.0538+88.4889C78.2758+88.6809+78.4498+88.9149+78.5758+89.1909C78.7018+89.4669+78.7648+89.8029+78.7648+90.1989C78.7648+90.6789+78.6628+91.0899+78.4588+91.4319C78.2548+91.7739+77.9908+92.0529+77.6668+92.2689C77.3428+92.4849+76.9738+92.6409+76.5598+92.7369C76.1458+92.8329+75.7288+92.8809+75.3088+92.8809C74.6008+92.8809+73.9797+92.7729+73.4457+92.5569C72.9117+92.3409+72.4347+91.9449+72.0147+91.3689L73.2387+90.3609C73.5027+90.6249+73.7967+90.8589+74.1207+91.0629C74.4448+91.2669+74.8408+91.3689+75.3088+91.3689C75.5128+91.3689+75.7198+91.3479+75.9298+91.3059C76.1398+91.2639+76.3258+91.1979+76.4878+91.1079C76.6498+91.0179+76.7818+90.9039+76.8838+90.7659C76.9858+90.6279+77.0368+90.4689+77.0368+90.2889C77.0368+90.0489+76.9618+89.8509+76.8118+89.6949C76.6618+89.5389+76.4818+89.4159+76.2718+89.3259C76.0618+89.2359+75.8398+89.1639+75.6058+89.1099C75.3718+89.0559+75.1648+89.0109+74.9848+88.9749C74.6368+88.8909+74.3068+88.7949+73.9947+88.6869C73.6827+88.5789+73.4067+88.4349+73.1667+88.255C72.9267+88.075+72.7347+87.847+72.5907+87.571C72.4467+87.295+72.3747+86.953+72.3747+86.545C72.3747+86.101+72.4677+85.714+72.6537+85.384C72.8397+85.054+73.0857+84.781+73.3917+84.565C73.6977+84.349+74.0457+84.187+74.4358+84.079C74.8258+83.971+75.2188+83.917+75.6148+83.917C76.1908+83.917+76.7428+84.025+77.2708+84.241C77.7988+84.457+78.2188+84.817+78.5308+85.321L77.2708+86.275Z" opacity="1" fill="#ffffff"/>
<path d="M85.299+85.537L82.9769+85.537L82.9769+89.4069C82.9769+89.6469+82.9829+89.8839+82.9949+90.1179C83.0069+90.3519+83.0519+90.5619+83.1299+90.7479C83.2079+90.9339+83.3279+91.0839+83.4899+91.1979C83.6519+91.3119+83.8889+91.3689+84.201+91.3689C84.393+91.3689+84.591+91.3509+84.795+91.3149C84.999+91.2789+85.185+91.2129+85.353+91.1169L85.353+92.5929C85.161+92.7009+84.912+92.7759+84.606+92.8179C84.3+92.8599+84.0629+92.8809+83.8949+92.8809C83.2709+92.8809+82.7879+92.7939+82.4459+92.6199C82.1039+92.4459+81.8519+92.2209+81.6899+91.9449C81.5279+91.6689+81.4319+91.3599+81.4019+91.0179C81.3719+90.6759+81.3569+90.3309+81.3569+89.9829L81.3569+85.537L79.4849+85.537L79.4849+84.133L81.3569+84.133L81.3569+81.7391L82.9769+81.7391L82.9769+84.133L85.299+84.133L85.299+85.537Z" opacity="1" fill="#ffffff"/>
<path d="M87.423+85.177C87.879+84.757+88.407+84.442+89.007+84.232C89.6071+84.022+90.2071+83.917+90.8071+83.917C91.4311+83.917+91.9681+83.995+92.4181+84.151C92.8681+84.307+93.2371+84.517+93.5251+84.781C93.8131+85.045+94.0261+85.348+94.1642+85.69C94.3022+86.032+94.3712+86.389+94.3712+86.761L94.3712+91.1169C94.3712+91.4169+94.3772+91.6929+94.3892+91.9449C94.4012+92.1969+94.4192+92.4369+94.4432+92.6649L93.0031+92.6649C92.9671+92.2329+92.9491+91.8009+92.9491+91.3689L92.9131+91.3689C92.5531+91.9209+92.1271+92.3109+91.6351+92.5389C91.1431+92.7669+90.5731+92.8809+89.9251+92.8809C89.5291+92.8809+89.1511+92.8269+88.791+92.7189C88.431+92.6109+88.116+92.4489+87.846+92.2329C87.576+92.0169+87.363+91.7499+87.207+91.4319C87.051+91.1139+86.973+90.7449+86.973+90.3249C86.973+89.7729+87.096+89.3109+87.342+88.9389C87.588+88.5669+87.924+88.264+88.35+88.03C88.776+87.796+89.2741+87.628+89.8441+87.526C90.4141+87.424+91.0231+87.373+91.6711+87.373L92.8591+87.373L92.8591+87.013C92.8591+86.797+92.8171+86.581+92.7331+86.365C92.6491+86.149+92.5231+85.954+92.3551+85.78C92.1871+85.606+91.9771+85.468+91.7251+85.366C91.4731+85.264+91.1731+85.213+90.8251+85.213C90.5131+85.213+90.2401+85.243+90.0061+85.303C89.7721+85.363+89.5591+85.438+89.3671+85.528C89.1751+85.618+89.001+85.723+88.845+85.843C88.689+85.963+88.539+86.077+88.395+86.185L87.423+85.177ZM91.9951+88.5609C91.6111+88.5609+91.2181+88.5819+90.8161+88.6239C90.4141+88.6659+90.0481+88.7469+89.7181+88.8669C89.3881+88.9869+89.1181+89.1549+88.908+89.3709C88.698+89.5869+88.593+89.8629+88.593+90.1989C88.593+90.6909+88.758+91.0449+89.088+91.2609C89.4181+91.4769+89.8651+91.5849+90.4291+91.5849C90.8731+91.5849+91.2511+91.5099+91.5631+91.3599C91.8751+91.2099+92.1271+91.0149+92.3191+90.7749C92.5111+90.5349+92.6491+90.2679+92.7331+89.9739C92.8171+89.6799+92.8591+89.3889+92.8591+89.1009L92.8591+88.5609L91.9951+88.5609Z" opacity="1" fill="#ffffff"/>
<path d="M101.301+85.537L98.9792+85.537L98.9792+89.4069C98.9792+89.6469+98.9852+89.8839+98.9972+90.1179C99.0092+90.3519+99.0543+90.5619+99.1323+90.7479C99.2103+90.9339+99.3303+91.0839+99.4923+91.1979C99.6543+91.3119+99.8913+91.3689+100.203+91.3689C100.395+91.3689+100.593+91.3509+100.797+91.3149C101.001+91.2789+101.187+91.2129+101.355+91.1169L101.355+92.5929C101.163+92.7009+100.914+92.7759+100.608+92.8179C100.302+92.8599+100.065+92.8809+99.8973+92.8809C99.2733+92.8809+98.7902+92.7939+98.4482+92.6199C98.1062+92.4459+97.8542+92.2209+97.6922+91.9449C97.5302+91.6689+97.4342+91.3599+97.4042+91.0179C97.3742+90.6759+97.3592+90.3309+97.3592+89.9829L97.3592+85.537L95.4872+85.537L95.4872+84.133L97.3592+84.133L97.3592+81.7391L98.9792+81.7391L98.9792+84.133L101.301+84.133L101.301+85.537Z" opacity="1" fill="#ffffff"/>
<path d="M107.925+86.275C107.733+86.035+107.496+85.834+107.214+85.672C106.932+85.51+106.587+85.429+106.179+85.429C105.795+85.429+105.462+85.51+105.18+85.672C104.898+85.834+104.757+86.071+104.757+86.383C104.757+86.635+104.838+86.839+105+86.995C105.162+87.151+105.354+87.277+105.576+87.373C105.798+87.469+106.035+87.541+106.287+87.589C106.539+87.637+106.755+87.679+106.935+87.715C107.283+87.799+107.61+87.901+107.916+88.021C108.222+88.141+108.486+88.2969+108.708+88.4889C108.93+88.6809+109.104+88.9149+109.23+89.1909C109.356+89.4669+109.419+89.8029+109.419+90.1989C109.419+90.6789+109.317+91.0899+109.113+91.4319C108.909+91.7739+108.645+92.0529+108.321+92.2689C107.997+92.4849+107.628+92.6409+107.214+92.7369C106.8+92.8329+106.383+92.8809+105.963+92.8809C105.255+92.8809+104.634+92.7729+104.1+92.5569C103.566+92.3409+103.089+91.9449+102.669+91.3689L103.893+90.3609C104.157+90.6249+104.451+90.8589+104.775+91.0629C105.099+91.2669+105.495+91.3689+105.963+91.3689C106.167+91.3689+106.374+91.3479+106.584+91.3059C106.794+91.2639+106.98+91.1979+107.142+91.1079C107.304+91.0179+107.436+90.9039+107.538+90.7659C107.64+90.6279+107.691+90.4689+107.691+90.2889C107.691+90.0489+107.616+89.8509+107.466+89.6949C107.316+89.5389+107.136+89.4159+106.926+89.3259C106.716+89.2359+106.494+89.1639+106.26+89.1099C106.026+89.0559+105.819+89.0109+105.639+88.9749C105.291+88.8909+104.961+88.7949+104.649+88.6869C104.337+88.5789+104.061+88.4349+103.821+88.255C103.581+88.075+103.389+87.847+103.245+87.571C103.101+87.295+103.029+86.953+103.029+86.545C103.029+86.101+103.122+85.714+103.308+85.384C103.494+85.054+103.74+84.781+104.046+84.565C104.352+84.349+104.7+84.187+105.09+84.079C105.48+83.971+105.873+83.917+106.269+83.917C106.845+83.917+107.397+84.025+107.925+84.241C108.453+84.457+108.873+84.817+109.185+85.321L107.925+86.275Z" opacity="1" fill="#ffffff"/>
</g>
<g opacity="1">
<path d="M60.5221+122.827L57.3159+122.827L57.3159+122.039L61.4877+122.039L61.4877+122.808L58.844+128.677L57.8315+128.677L60.5221+122.827Z" opacity="1" fill="#dde3e7"/>
</g>
<g opacity="1">
<path d="M80.8885+139.877L80.851+139.877C80.6447+139.977+80.401+140.027+80.1197+140.027C79.8822+140.027+79.6416+139.986+79.3978+139.905C79.1541+139.824+78.9338+139.697+78.7369+139.525C78.54+139.353+78.3791+139.135+78.2541+138.869C78.1291+138.603+78.0666+138.289+78.0666+137.927C78.0666+137.564+78.1275+137.244+78.2494+136.966C78.3713+136.688+78.5353+136.455+78.7416+136.268C78.9478+136.08+79.1885+135.938+79.4635+135.841C79.7385+135.744+80.0322+135.696+80.3447+135.696C80.6572+135.696+80.951+135.746+81.226+135.846C81.501+135.946+81.7416+136.089+81.9478+136.277C82.1541+136.464+82.3181+136.689+82.44+136.952C82.5619+137.214+82.6228+137.508+82.6228+137.833C82.6228+138.039+82.6072+138.227+82.576+138.396C82.5447+138.564+82.4994+138.725+82.44+138.878C82.3806+139.032+82.3103+139.183+82.2291+139.333C82.1478+139.483+82.0572+139.636+81.9572+139.793L80.2791+142.446L79.2197+142.446L80.8885+139.877ZM81.7228+137.861C81.7228+137.661+81.69+137.477+81.6244+137.308C81.5588+137.139+81.465+136.994+81.3431+136.872C81.2213+136.75+81.076+136.655+80.9072+136.586C80.7385+136.518+80.551+136.483+80.3447+136.483C80.1385+136.483+79.951+136.518+79.7822+136.586C79.6135+136.655+79.4681+136.75+79.3463+136.872C79.2244+136.994+79.1306+137.139+79.065+137.308C78.9994+137.477+78.9666+137.661+78.9666+137.861C78.9666+138.061+78.9994+138.246+79.065+138.414C79.1306+138.583+79.2244+138.728+79.3463+138.85C79.4681+138.972+79.6135+139.068+79.7822+139.136C79.951+139.205+80.1385+139.239+80.3447+139.239C80.551+139.239+80.7385+139.205+80.9072+139.136C81.076+139.068+81.2213+138.972+81.3431+138.85C81.465+138.728+81.5588+138.583+81.6244+138.414C81.69+138.246+81.7228+138.061+81.7228+137.861Z" opacity="1" fill="#dde3e7"/>
</g>
<g opacity="1">
<path d="M89.6275+140.586C89.7337+140.905+89.8759+141.142+90.054+141.298C90.2321+141.455+90.4962+141.533+90.8462+141.533C91.0212+141.533+91.1853+141.503+91.3384+141.444C91.4915+141.384+91.6275+141.303+91.7462+141.2C91.865+141.097+91.9587+140.972+92.0275+140.825C92.0962+140.678+92.1306+140.514+92.1306+140.333C92.1306+140.058+92.0728+139.838+91.9571+139.672C91.8415+139.506+91.6931+139.381+91.5118+139.297C91.3306+139.213+91.1306+139.158+90.9118+139.133C90.6931+139.108+90.4775+139.095+90.265+139.095L90.265+138.308C90.6087+138.308+90.89+138.284+91.1087+138.238C91.3275+138.191+91.4993+138.123+91.6243+138.036C91.7493+137.948+91.8368+137.839+91.8868+137.708C91.9368+137.577+91.9618+137.43+91.9618+137.267C91.9618+136.911+91.8556+136.642+91.6431+136.461C91.4306+136.28+91.165+136.189+90.8462+136.189C90.6025+136.189+90.3821+136.259+90.1853+136.4C89.9884+136.541+89.84+136.727+89.74+136.958L88.8212+136.648C88.9962+136.223+89.2634+135.909+89.6228+135.706C89.9821+135.503+90.3837+135.402+90.8275+135.402C91.0962+135.402+91.354+135.438+91.6009+135.509C91.8478+135.581+92.065+135.692+92.2525+135.842C92.44+135.992+92.5884+136.181+92.6978+136.409C92.8071+136.638+92.8618+136.905+92.8618+137.211C92.8618+137.561+92.7571+137.873+92.5478+138.148C92.3384+138.423+92.065+138.611+91.7275+138.711L91.7275+138.73C91.9337+138.767+92.1181+138.836+92.2806+138.936C92.4431+139.036+92.5806+139.161+92.6931+139.311C92.8056+139.461+92.89+139.628+92.9462+139.813C93.0025+139.997+93.0306+140.192+93.0306+140.398C93.0306+140.717+92.9696+140.997+92.8478+141.238C92.7259+141.478+92.5634+141.678+92.3603+141.838C92.1571+141.997+91.9228+142.117+91.6571+142.198C91.3915+142.28+91.1118+142.32+90.8181+142.32C90.3118+142.32+89.8665+142.205+89.4821+141.973C89.0978+141.742+88.8306+141.377+88.6806+140.877L89.6275+140.586Z" opacity="1" fill="#dde3e7"/>
</g>
<g opacity="1">
<path d="M69.4303+126.874C69.5365+127.193+69.6787+127.431+69.8568+127.587C70.035+127.743+70.299+127.821+70.649+127.821C70.824+127.821+70.9881+127.791+71.1412+127.732C71.2943+127.673+71.4303+127.591+71.549+127.488C71.6678+127.385+71.7615+127.26+71.8303+127.113C71.899+126.966+71.9334+126.802+71.9334+126.621C71.9334+126.346+71.8756+126.126+71.76+125.96C71.6443+125.795+71.4959+125.67+71.3147+125.585C71.1334+125.501+70.9334+125.446+70.7147+125.421C70.4959+125.396+70.2803+125.384+70.0678+125.384L70.0678+124.596C70.4115+124.596+70.6928+124.573+70.9115+124.526C71.1303+124.479+71.3022+124.412+71.4272+124.324C71.5522+124.237+71.6397+124.127+71.6897+123.996C71.7397+123.865+71.7647+123.718+71.7647+123.556C71.7647+123.199+71.6584+122.931+71.4459+122.749C71.2334+122.568+70.9678+122.477+70.649+122.477C70.4053+122.477+70.185+122.548+69.9881+122.688C69.7912+122.829+69.6428+123.015+69.5428+123.246L68.624+122.937C68.799+122.512+69.0662+122.198+69.4256+121.995C69.785+121.791+70.1865+121.69+70.6303+121.69C70.899+121.69+71.1568+121.726+71.4037+121.798C71.6506+121.87+71.8678+121.981+72.0553+122.131C72.2428+122.281+72.3912+122.47+72.5006+122.698C72.61+122.926+72.6647+123.193+72.6647+123.499C72.6647+123.849+72.56+124.162+72.3506+124.437C72.1412+124.712+71.8678+124.899+71.5303+124.999L71.5303+125.018C71.7365+125.056+71.9209+125.124+72.0834+125.224C72.2459+125.324+72.3834+125.449+72.4959+125.599C72.6084+125.749+72.6928+125.916+72.749+126.101C72.8053+126.285+72.8334+126.481+72.8334+126.687C72.8334+127.006+72.7725+127.285+72.6506+127.526C72.5287+127.766+72.3662+127.966+72.1631+128.126C71.96+128.285+71.7256+128.406+71.46+128.487C71.1943+128.568+70.9147+128.609+70.6209+128.609C70.1147+128.609+69.6693+128.493+69.285+128.262C68.9006+128.031+68.6334+127.665+68.4834+127.165L69.4303+126.874Z" opacity="1" fill="#dde3e7"/>
</g>
<g opacity="1">
<path d="M82.6947+122.737L80.0041+122.737L79.976+124.396C80.0197+124.377+80.0822+124.359+80.1635+124.34C80.2447+124.321+80.3275+124.306+80.4119+124.293C80.4963+124.281+80.5791+124.271+80.6603+124.265C80.7416+124.259+80.8103+124.256+80.8666+124.256C81.1791+124.256+81.4619+124.309+81.715+124.415C81.9681+124.521+82.1853+124.671+82.3666+124.865C82.5478+125.059+82.6869+125.29+82.7838+125.559C82.8806+125.827+82.9291+126.124+82.9291+126.449C82.9291+126.781+82.8681+127.081+82.7463+127.349C82.6244+127.618+82.4572+127.849+82.2447+128.043C82.0322+128.237+81.7853+128.385+81.5041+128.488C81.2228+128.591+80.9197+128.643+80.5947+128.643C80.1447+128.643+79.7385+128.527+79.376+128.296C79.0135+128.065+78.7541+127.734+78.5978+127.302L79.5072+126.993C79.626+127.299+79.7853+127.52+79.9853+127.654C80.1853+127.788+80.4353+127.856+80.7353+127.856C80.9103+127.856+81.0775+127.824+81.2369+127.762C81.3963+127.699+81.5338+127.61+81.6494+127.495C81.765+127.379+81.8572+127.237+81.926+127.068C81.9947+126.899+82.0291+126.709+82.0291+126.496C82.0291+126.009+81.8806+125.645+81.5838+125.404C81.2869+125.163+80.901+125.043+80.426+125.043C80.2572+125.043+80.0431+125.073+79.7838+125.132C79.5244+125.191+79.2822+125.277+79.0572+125.39L79.1322+121.893L82.6947+121.893L82.6947+122.737Z" opacity="1" fill="#dde3e7"/>
</g>
<g opacity="1">
<path d="M88.9372+127.179L91.5997+124.535C91.6935+124.447+91.7841+124.352+91.8716+124.249C91.9591+124.146+92.0372+124.038+92.106+123.926C92.1747+123.813+92.2294+123.694+92.2701+123.569C92.3107+123.444+92.331+123.313+92.331+123.176C92.331+123.013+92.3013+122.866+92.2419+122.735C92.1826+122.604+92.1013+122.493+91.9982+122.402C91.8951+122.311+91.7732+122.241+91.6326+122.191C91.4919+122.141+91.3435+122.116+91.1872+122.116C90.8622+122.116+90.5935+122.207+90.381+122.388C90.1685+122.569+90.0341+122.819+89.9779+123.138L89.0029+123.054C89.0466+122.76+89.1326+122.505+89.2607+122.29C89.3888+122.074+89.5482+121.894+89.7388+121.751C89.9294+121.607+90.1482+121.501+90.3951+121.432C90.6419+121.363+90.9091+121.329+91.1966+121.329C91.4841+121.329+91.7544+121.368+92.0076+121.446C92.2607+121.524+92.4826+121.64+92.6732+121.793C92.8638+121.946+93.0138+122.136+93.1232+122.365C93.2326+122.593+93.2872+122.86+93.2872+123.166C93.2872+123.385+93.2544+123.59+93.1888+123.78C93.1232+123.971+93.0372+124.151+92.931+124.319C92.8247+124.488+92.7029+124.647+92.5654+124.797C92.4279+124.947+92.2841+125.094+92.1341+125.238L89.9497+127.347L93.2872+127.347L93.2872+128.135L88.9372+128.135L88.9372+127.179Z" opacity="1" fill="#dde3e7"/>
</g>
<g opacity="1">
<path d="M69.8545+138.148L69.892+138.148C70.0982+138.048+70.342+137.998+70.6232+137.998C70.8607+137.998+71.1014+138.039+71.3451+138.12C71.5889+138.201+71.8092+138.328+72.006+138.499C72.2029+138.671+72.3639+138.89+72.4889+139.156C72.6139+139.421+72.6764+139.735+72.6764+140.098C72.6764+140.467+72.6154+140.79+72.4935+141.068C72.3717+141.346+72.2076+141.579+72.0014+141.767C71.7951+141.954+71.5545+142.095+71.2795+142.189C71.0045+142.282+70.7107+142.329+70.3982+142.329C70.0857+142.329+69.792+142.279+69.517+142.179C69.242+142.079+69.0014+141.935+68.7951+141.748C68.5889+141.56+68.4248+141.335+68.3029+141.073C68.181+140.81+68.1201+140.517+68.1201+140.192C68.1201+139.985+68.1357+139.798+68.167+139.629C68.1982+139.46+68.2435+139.299+68.3029+139.146C68.3623+138.993+68.4326+138.843+68.5139+138.696C68.5951+138.549+68.6857+138.395+68.7857+138.232L70.4639+135.579L71.5232+135.579L69.8545+138.148ZM69.0201+140.164C69.0201+140.364+69.0529+140.548+69.1185+140.717C69.1842+140.885+69.2779+141.031+69.3998+141.153C69.5217+141.274+69.667+141.37+69.8357+141.439C70.0045+141.507+70.192+141.542+70.3982+141.542C70.6045+141.542+70.792+141.507+70.9607+141.439C71.1295+141.37+71.2748+141.274+71.3967+141.153C71.5185+141.031+71.6123+140.885+71.6779+140.717C71.7435+140.548+71.7764+140.364+71.7764+140.164C71.7764+139.964+71.7435+139.779+71.6779+139.61C71.6123+139.442+71.5185+139.296+71.3967+139.174C71.2748+139.053+71.1295+138.957+70.9607+138.889C70.792+138.82+70.6045+138.785+70.3982+138.785C70.192+138.785+70.0045+138.82+69.8357+138.889C69.667+138.957+69.5217+139.053+69.3998+139.174C69.2779+139.296+69.1842+139.442+69.1185+139.61C69.0529+139.779+69.0201+139.964+69.0201+140.164Z" opacity="1" fill="#dde3e7"/>
</g>
<g opacity="1">
<path d="M61.4398+136.208L58.7492+136.208L58.7211+137.867C58.7648+137.849+58.8273+137.83+58.9086+137.811C58.9898+137.792+59.0727+137.777+59.157+137.764C59.2414+137.752+59.3242+137.742+59.4055+137.736C59.4867+137.73+59.5555+137.727+59.6117+137.727C59.9242+137.727+60.207+137.78+60.4602+137.886C60.7133+137.992+60.9305+138.142+61.1117+138.336C61.293+138.53+61.432+138.761+61.5289+139.03C61.6258+139.299+61.6742+139.596+61.6742+139.921C61.6742+140.252+61.6133+140.552+61.4914+140.821C61.3695+141.089+61.2023+141.321+60.9898+141.514C60.7773+141.708+60.5305+141.857+60.2492+141.96C59.968+142.063+59.6648+142.114+59.3398+142.114C58.8898+142.114+58.4836+141.999+58.1211+141.767C57.7586+141.536+57.4992+141.205+57.343+140.774L58.2523+140.464C58.3711+140.771+58.5305+140.991+58.7305+141.125C58.9305+141.26+59.1805+141.327+59.4805+141.327C59.6555+141.327+59.8227+141.296+59.982+141.233C60.1414+141.171+60.2789+141.082+60.3945+140.966C60.5102+140.85+60.6023+140.708+60.6711+140.539C60.7398+140.371+60.7742+140.18+60.7742+139.967C60.7742+139.48+60.6258+139.116+60.3289+138.875C60.032+138.635+59.6461+138.514+59.1711+138.514C59.0023+138.514+58.7883+138.544+58.5289+138.603C58.2695+138.663+58.0273+138.749+57.8023+138.861L57.8773+135.364L61.4398+135.364L61.4398+136.208Z" opacity="1" fill="#dde3e7"/>
</g>
<g opacity="1">
<path d="M60.1352+112.408L57.3046+112.468L57.2851+111.549L59.8379+107.238L60.9252+107.215L61.0183+111.601L61.9556+111.582L61.9723+112.369L61.035+112.389L61.0661+113.851L60.1663+113.87L60.1352+112.408ZM60.0481+108.303L60.0293+108.303L58.0752+111.664L60.1185+111.621L60.0481+108.303Z" opacity="1" fill="#dde3e7"/>
</g>
<g opacity="1">
<path d="M71.6522+107.873L68.4459+107.873L68.4459+107.086L72.6178+107.086L72.6178+107.854L69.974+113.723L68.9615+113.723L71.6522+107.873Z" opacity="1" fill="#dde3e7"/>
</g>
<g opacity="1">
<path d="M78.7103+112.801L81.3728+110.158C81.4666+110.07+81.5572+109.975+81.6447+109.872C81.7322+109.769+81.8103+109.661+81.8791+109.548C81.9478+109.436+82.0025+109.317+82.0431+109.192C82.0838+109.067+82.1041+108.936+82.1041+108.798C82.1041+108.636+82.0744+108.489+82.015+108.358C81.9556+108.226+81.8744+108.115+81.7713+108.025C81.6681+107.934+81.5463+107.864+81.4056+107.814C81.265+107.764+81.1166+107.739+80.9603+107.739C80.6353+107.739+80.3666+107.829+80.1541+108.011C79.9416+108.192+79.8072+108.442+79.751+108.761L78.776+108.676C78.8197+108.383+78.9056+108.128+79.0338+107.912C79.1619+107.697+79.3213+107.517+79.5119+107.373C79.7025+107.229+79.9213+107.123+80.1681+107.054C80.415+106.986+80.6822+106.951+80.9697+106.951C81.2572+106.951+81.5275+106.99+81.7806+107.069C82.0338+107.147+82.2556+107.262+82.4463+107.415C82.6369+107.569+82.7869+107.759+82.8963+107.987C83.0056+108.215+83.0603+108.483+83.0603+108.789C83.0603+109.008+83.0275+109.212+82.9619+109.403C82.8963+109.594+82.8103+109.773+82.7041+109.942C82.5978+110.111+82.476+110.27+82.3385+110.42C82.201+110.57+82.0572+110.717+81.9072+110.861L79.7228+112.97L83.0603+112.97L83.0603+113.758L78.7103+113.758L78.7103+112.801Z" opacity="1" fill="#dde3e7"/>
</g>
<g opacity="1">
<path d="M91.5929+110.856L91.5554+110.855C91.3461+110.948+91.1009+110.991+90.8198+110.982C90.5824+110.974+90.3432+110.926+90.1021+110.837C89.8611+110.748+89.6449+110.614+89.4536+110.436C89.2623+110.258+89.1084+110.035+88.9919+109.765C88.8754+109.496+88.8229+109.18+88.8344+108.818C88.8459+108.455+88.917+108.137+89.0476+107.863C89.1783+107.589+89.3497+107.361+89.5618+107.18C89.7739+107+90.0189+106.865+90.2968+106.777C90.5747+106.689+90.8699+106.65+91.1822+106.66C91.4946+106.67+91.7866+106.729+92.0583+106.838C92.33+106.946+92.5659+107.098+92.7661+107.292C92.9663+107.486+93.1231+107.716+93.2366+107.982C93.3501+108.248+93.4016+108.544+93.3913+108.869C93.3848+109.075+93.3632+109.262+93.3266+109.429C93.29+109.597+93.2396+109.756+93.1754+109.907C93.1112+110.059+93.0361+110.208+92.9501+110.355C92.8642+110.503+92.7687+110.653+92.6638+110.806L90.9023+113.404L89.8434+113.371L91.5929+110.856ZM92.4909+108.868C92.4972+108.668+92.4703+108.483+92.4101+108.312C92.3498+108.141+92.2607+107.993+92.1428+107.867C92.0249+107.742+91.8826+107.642+91.7162+107.568C91.5497+107.494+91.3634+107.453+91.1572+107.447C90.9511+107.44+90.7626+107.469+90.5917+107.532C90.4209+107.595+90.2726+107.686+90.1469+107.804C90.0212+107.922+89.9229+108.064+89.852+108.231C89.781+108.397+89.7424+108.581+89.736+108.781C89.7297+108.98+89.7566+109.166+89.8168+109.336C89.8771+109.507+89.9662+109.655+90.0841+109.781C90.2021+109.907+90.3443+110.007+90.5107+110.081C90.6772+110.155+90.8635+110.195+91.0697+110.202C91.2758+110.208+91.4643+110.18+91.6352+110.116C91.806+110.053+91.9543+109.962+92.08+109.845C92.2057+109.727+92.304+109.584+92.3749+109.418C92.4459+109.251+92.4845+109.068+92.4909+108.868Z" opacity="1" fill="#dde3e7"/>
</g>
<g opacity="1">
<path d="M80.1123+64.0107C80.1414+63.7687+80.1841+63.5189+80.2404+63.2613C80.2966+63.0037+80.3724+62.7531+80.4678+62.5097C80.5633+62.2662+80.6791+62.0362+80.8154+61.8197C80.9516+61.6032+81.1154+61.4199+81.3066+61.2699C81.4978+61.1198+81.7159+61.0076+81.9609+60.9332C82.2059+60.8589+82.4836+60.8404+82.7938+60.8778C83.1041+60.9152+83.3694+60.9991+83.5898+61.1295C83.8101+61.2599+83.9953+61.4207+84.1454+61.6119C84.2955+61.8031+84.411+62.0201+84.4919+62.2627C84.5728+62.5054+84.6307+62.7563+84.6656+63.0155C84.7005+63.2746+84.7146+63.536+84.708+63.7996C84.7015+64.0632+84.6836+64.316+84.6544+64.558C84.6126+64.9055+84.5367+65.2741+84.4268+65.6637C84.3169+66.0534+84.1576+66.4088+83.9489+66.7299C83.7403+67.051+83.4751+67.3054+83.1534+67.4933C82.8318+67.6812+82.4383+67.7471+81.9729+67.691C81.5075+67.6349+81.1409+67.4774+80.8731+67.2185C80.6052+66.9596+80.4081+66.6495+80.2817+66.288C80.1553+65.9265+80.085+65.5435+80.0708+65.1389C80.0566+64.7343+80.0704+64.3582+80.1123+64.0107ZM81.0058+64.1184C80.9797+64.3356+80.9626+64.5948+80.9546+64.896C80.9467+65.1972+80.9726+65.4915+81.0324+65.7788C81.0922+66.0662+81.202+66.317+81.3619+66.5315C81.5218+66.7459+81.7568+66.8718+82.0671+66.9092C82.3773+66.9465+82.6356+66.8801+82.8418+66.7098C83.048+66.5395+83.2143+66.3219+83.3407+66.057C83.467+65.792+83.5621+65.5123+83.6259+65.2179C83.6897+64.9234+83.7347+64.6676+83.7609+64.4504C83.7788+64.3015+83.7946+64.1318+83.8081+63.9414C83.8216+63.751+83.823+63.5561+83.8124+63.3565C83.8019+63.1569+83.7766+62.9619+83.7366+62.7713C83.6966+62.5808+83.6342+62.4065+83.5494+62.2483C83.4646+62.0902+83.3529+61.9587+83.2145+61.8539C83.076+61.749+82.9044+61.6843+82.6996+61.6596C82.4949+61.635+82.3128+61.6571+82.1534+61.726C81.994+61.7949+81.8543+61.8961+81.7344+62.0296C81.6144+62.1631+81.5124+62.3176+81.4283+62.4932C81.3442+62.6688+81.2733+62.8522+81.2156+63.0436C81.1579+63.2349+81.113+63.4247+81.0809+63.6128C81.0488+63.801+81.0238+63.9695+81.0058+64.1184Z" opacity="1" fill="#dde3e7"/>
</g>
<g opacity="1">
<path d="M70.2389+48.9719C70.5221+49.1527+70.7821+49.2478+71.0188+49.2572C71.2556+49.2665+71.51+49.1611+71.782+48.9409C71.918+48.8307+72.0268+48.7044+72.1085+48.5619C72.1901+48.4194+72.2446+48.2707+72.272+48.1159C72.2994+47.961+72.2936+47.8048+72.2546+47.6474C72.2157+47.49+72.1391+47.3409+72.0251+47.2C71.852+46.9863+71.6685+46.8514+71.4744+46.7955C71.2803+46.7395+71.0863+46.7358+70.8923+46.7842C70.6984+46.8327+70.5085+46.9161+70.3228+47.0343C70.137+47.1525+69.9616+47.2785+69.7964+47.4122L69.3009+46.8002C69.568+46.5839+69.7719+46.3887+69.9124+46.2146C70.0529+46.0405+70.1442+45.8801+70.1863+45.7335C70.2284+45.5868+70.2276+45.4467+70.1838+45.3133C70.1401+45.1798+70.0671+45.0499+69.9648+44.9236C69.7407+44.6467+69.489+44.5047+69.2098+44.4976C68.9306+44.4904+68.6671+44.5871+68.4194+44.7877C68.2299+44.9411+68.1029+45.1344+68.0384+45.3676C67.9739+45.6007+67.9755+45.8387+68.0433+46.0813L67.1346+46.419C67.0032+45.9786+67.0132+45.5664+67.1647+45.1823C67.3162+44.7983+67.5644+44.4667+67.9093+44.1875C68.1181+44.0184+68.3411+43.8841+68.5782+43.7846C68.8153+43.6851+69.0539+43.6346+69.294+43.6332C69.5341+43.6318+69.7685+43.6854+69.997+43.7938C70.2256+43.9023+70.4362+44.0755+70.6289+44.3136C70.8492+44.5856+70.9644+44.8943+70.9748+45.2398C70.9851+45.5853+70.8906+45.9031+70.6912+46.1932L70.703+46.2077C70.8869+46.1071+71.0734+46.0445+71.2627+46.02C71.4519+45.9954+71.6374+46.0061+71.8192+46.0519C72.001+46.0976+72.1718+46.1745+72.3316+46.2824C72.4913+46.3903+72.6361+46.5244+72.7658+46.6847C72.9664+46.9324+73.0951+47.1881+73.1518+47.4518C73.2085+47.7155+73.208+47.9732+73.1504+48.2249C73.0929+48.4766+72.9864+48.7176+72.8311+48.9479C72.6758+49.1782+72.484+49.3857+72.2557+49.5706C71.8622+49.8892+71.4434+50.0795+70.9991+50.1417C70.5549+50.2038+70.1171+50.0878+69.6859+49.7936L70.2389+48.9719Z" opacity="1" fill="#dde3e7"/>
</g>
<g opacity="1">
<path d="M55.0624+50.679C54.8462+50.5665+54.6273+50.4387+54.406+50.2954C54.1846+50.1522+53.9767+49.9931+53.7824+49.8181C53.5881+49.6431+53.4135+49.4538+53.2588+49.2501C53.1041+49.0464+52.9901+48.8286+52.9169+48.5968C52.8436+48.3651+52.8153+48.1214+52.8319+47.8659C52.8485+47.6104+52.9289+47.344+53.073+47.0667C53.2172+46.7894+53.389+46.5706+53.5886+46.4102C53.7883+46.2498+54.0039+46.133+54.2357+46.0598C54.4675+45.9866+54.7112+45.9548+54.9668+45.9644C55.2225+45.974+55.4777+46.0081+55.7326+46.0666C55.9874+46.1251+56.2371+46.2038+56.4815+46.3027C56.726+46.4016+56.9563+46.5073+57.1726+46.6197C57.4831+46.7811+57.8015+46.9818+58.1275+47.2218C58.4536+47.4617+58.7302+47.7358+58.9574+48.0441C59.1846+48.3524+59.3295+48.6901+59.3922+49.0573C59.4549+49.4245+59.3782+49.816+59.162+50.2319C58.9458+50.6479+58.6694+50.9356+58.3328+51.0953C57.9963+51.2549+57.6366+51.3303+57.2537+51.3215C56.8709+51.3127+56.4876+51.2437+56.1039+51.1147C55.7201+50.9856+55.373+50.8404+55.0624+50.679ZM55.4775+49.8804C55.6716+49.9813+55.9083+50.0885+56.1874+50.2019C56.4666+50.3153+56.7512+50.3946+57.0412+50.4397C57.3312+50.4848+57.6047+50.4702+57.8616+50.396C58.1186+50.3217+58.3191+50.146+58.4632+49.8687C58.6074+49.5914+58.636+49.3263+58.5491+49.0734C58.4623+48.8204+58.3171+48.5882+58.1135+48.3767C57.91+48.1653+57.6816+47.9779+57.4284+47.8146C57.1752+47.6512+56.9516+47.5191+56.7575+47.4182C56.6244+47.349+56.4711+47.2746+56.2976+47.195C56.1242+47.1154+55.9422+47.0455+55.7516+46.9852C55.5611+46.9249+55.3696+46.8799+55.1772+46.8503C54.9848+46.8208+54.7996+46.8178+54.6218+46.8416C54.4439+46.8654+54.2815+46.9236+54.1347+47.0163C53.9879+47.1091+53.8669+47.2469+53.7718+47.4299C53.6766+47.6129+53.6333+47.7912+53.6418+47.9646C53.6502+48.1381+53.6958+48.3044+53.7786+48.4636C53.8613+48.6229+53.9701+48.7728+54.1048+48.9133C54.2396+49.0538+54.3864+49.1847+54.5452+49.306C54.7041+49.4273+54.8659+49.536+55.0307+49.6323C55.1955+49.7285+55.3445+49.8112+55.4775+49.8804Z" opacity="1" fill="#dde3e7"/>
</g>
<g opacity="1">
<path d="M74.5142+12.6636L74.5067+12.6345C74.388+12.4947+74.3006+12.3159+74.2445+12.098C74.1971+11.914+74.1805+11.7195+74.1948+11.5144C74.2091+11.3094+74.2631+11.1134+74.357+10.9266C74.4508+10.7398+74.5881+10.5714+74.769+10.4216C74.9498+10.2717+75.1806+10.1606+75.4614+10.0882C75.7422+10.0158+76.0025+9.99907+76.2423+10.038C76.4821+10.0768+76.6952+10.1575+76.8817+10.2798C77.0681+10.4021+77.2263+10.5602+77.3563+10.7539C77.4862+10.9476+77.5824+11.1655+77.6448+11.4075C77.7072+11.6496+77.7271+11.8872+77.7045+12.1202C77.6819+12.3532+77.6186+12.5683+77.5145+12.7655C77.4105+12.9627+77.2689+13.1347+77.0899+13.2816C76.9109+13.4284+76.6955+13.5342+76.4437+13.5991C76.2839+13.6403+76.1356+13.6656+75.9986+13.6751C75.8616+13.6846+75.7279+13.6816+75.5974+13.6662C75.4669+13.6508+75.3355+13.6266+75.2031+13.5936C75.0706+13.5606+74.9339+13.521+74.7929+13.4747L72.4025+12.7044L72.191+11.8837L74.5142+12.6636ZM76.2422+12.9075C76.3972+12.8676+76.5335+12.8054+76.6511+12.7208C76.7687+12.6363+76.8626+12.5347+76.9326+12.4159C77.0027+12.2972+77.0475+12.1656+77.0671+12.0211C77.0867+11.8767+77.0759+11.7246+77.0347+11.5648C76.9935+11.405+76.9295+11.2666+76.8425+11.1496C76.7556+11.0326+76.6527+10.9391+76.534+10.869C76.4152+10.7989+76.2839+10.7553+76.1401+10.7381C75.9963+10.721+75.8469+10.7324+75.6919+10.7723C75.537+10.8122+75.4007+10.8745+75.2831+10.959C75.1655+11.0435+75.0716+11.1452+75.0015+11.2639C74.9315+11.3827+74.8866+11.5143+74.8671+11.6587C74.8475+11.8032+74.8583+11.9553+74.8995+12.1151C74.9407+12.2748+75.0047+12.4132+75.0917+12.5302C75.1786+12.6472+75.2815+12.7408+75.4002+12.8109C75.519+12.8809+75.6502+12.9246+75.7941+12.9417C75.9379+12.9589+76.0873+12.9475+76.2422+12.9075Z" opacity="1" fill="#dde3e7"/>
</g>
<g opacity="1">
<path d="M94.8603+8.05373L95.3516+10.0461L94.8622+10.1667L94.223+7.57436L94.7007+7.45658L98.7526+8.20022L98.9077+8.82938L94.8603+8.05373Z" opacity="1" fill="#dde3e7"/>
</g>
<g opacity="1">
<path d="M54.4586+11.2385L52.0661+9.78082C51.9859+9.7285+51.9006+9.67984+51.8102+9.63484C51.7198+9.58984+51.6277+9.55247+51.5339+9.52274C51.44+9.49301+51.3442+9.47459+51.2463+9.46748C51.1484+9.46037+51.0496+9.46911+50.9499+9.49368C50.8321+9.52273+50.731+9.5705+50.6464+9.63701C50.5619+9.70351+50.496+9.78225+50.4487+9.87321C50.4014+9.96417+50.3723+10.0651+50.3611+10.176C50.35+10.2869+50.3584+10.3989+50.3864+10.5122C50.4445+10.7478+50.5582+10.9265+50.7276+11.0481C50.897+11.1698+51.1022+11.2225+51.3434+11.2063L51.4565+11.9282C51.2357+11.949+51.0357+11.9322+50.8565+11.8779C50.6773+11.8235+50.5185+11.7401+50.3802+11.6276C50.2419+11.5151+50.1258+11.3755+50.0318+11.2088C49.9379+11.0422+49.8652+10.8546+49.8138+10.6462C49.7624+10.4378+49.7424+10.2348+49.7538+10.0373C49.7652+9.83987+49.8094+9.65835+49.8863+9.49278C49.9632+9.32722+50.0746+9.1844+50.2204+9.06433C50.3663+8.94427+50.5502+8.85686+50.7722+8.80212C50.9308+8.76302+51.085+8.75022+51.235+8.76372C51.3849+8.77722+51.5305+8.80741+51.6719+8.85427C51.8132+8.90113+51.9505+8.961+52.0838+9.03387C52.2171+9.10674+52.3493+9.1847+52.4803+9.26774L54.4+10.4743L53.8034+8.05474L54.3743+7.91397L55.1519+11.0675L54.4586+11.2385Z" opacity="1" fill="#dde3e7"/>
</g>
<g opacity="1">
<path d="M30.0213+11.4268L29.5092+9.43975L29.9972+9.31397L30.6636+11.8995L30.1872+12.0223L26.1277+11.3212L25.966+10.6937L30.0213+11.4268Z" opacity="1" fill="#dde3e7"/>
</g>
<g opacity="1">
<path d="M55.9035+37.4246C56.1994+37.3621+56.4263+37.2591+56.5841+37.1158C56.742+36.9724+56.8388+36.7443+56.8744+36.4313C56.8923+36.2748+56.8824+36.1251+56.8449+35.9821C56.8074+35.8391+56.7486+35.7093+56.6685+35.5926C56.5884+35.4759+56.4862+35.3793+56.3619+35.3029C56.2375+35.2264+56.0943+35.179+55.9322+35.1605C55.6863+35.1325+55.4834+35.1617+55.3236+35.2482C55.1637+35.3348+55.0368+35.4548+54.9428+35.6082C54.8489+35.7617+54.7796+35.935+54.735+36.128C54.6904+36.3211+54.6572+36.5127+54.6356+36.7027L53.9314+36.6224C53.9664+36.315+53.9741+36.0612+53.9545+35.8608C53.9348+35.6604+53.8923+35.4998+53.8268+35.3792C53.7613+35.2585+53.6724+35.1691+53.5601+35.111C53.4478+35.0529+53.319+35.0156+53.1737+34.999C52.8552+34.9627+52.604+35.0303+52.4203+35.2019C52.2366+35.3734+52.1285+35.6017+52.096+35.8868C52.0711+36.1047+52.1116+36.3089+52.2173+36.4993C52.3229+36.6897+52.4741+36.8413+52.6707+36.9543L52.3004+37.7444C51.9382+37.5446+51.6846+37.2736+51.5396+36.9316C51.3946+36.5895+51.3447+36.2201+51.3899+35.8233C51.4173+35.583+51.4757+35.3561+51.5651+35.1427C51.6545+34.9292+51.7759+34.7463+51.9291+34.5939C52.0823+34.4416+52.2665+34.3281+52.4817+34.2535C52.6968+34.179+52.9413+34.1573+53.2151+34.1885C53.5281+34.2242+53.7969+34.3496+54.0215+34.5649C54.246+34.7801+54.3858+35.0437+54.4409+35.3557L54.4576+35.3576C54.5122+35.177+54.5924+35.0192+54.6984+34.884C54.8044+34.7489+54.9302+34.6387+55.0758+34.5534C55.2214+34.4681+55.3795+34.4097+55.5501+34.3781C55.7207+34.3466+55.8982+34.3414+56.0826+34.3624C56.3677+34.3949+56.6116+34.4779+56.8143+34.6114C57.0171+34.7449+57.1793+34.9106+57.3012+35.1084C57.423+35.3063+57.5067+35.5282+57.5523+35.774C57.5979+36.0198+57.6057+36.274+57.5758+36.5367C57.5242+36.9894+57.3754+37.3758+57.1294+37.6959C56.8835+38.0161+56.5293+38.2178+56.0669+38.3009L55.9035+37.4246Z" opacity="1" fill="#dde3e7"/>
</g>
<g opacity="1">
<path d="M82.9694+36.6627C82.7324+36.8505+82.5752+37.0438+82.4978+37.2425C82.4203+37.4412+82.4353+37.6885+82.5429+37.9846C82.5966+38.1327+82.6722+38.2623+82.7694+38.3736C82.8667+38.4849+82.9772+38.5749+83.1009+38.6437C83.2246+38.7125+83.3592+38.7534+83.5046+38.7664C83.6499+38.7795+83.7993+38.7581+83.9526+38.7024C84.1852+38.618+84.3538+38.5014+84.4584+38.3527C84.563+38.204+84.6231+38.04+84.6388+37.8608C84.6545+37.6815+84.6393+37.4955+84.5933+37.3028C84.5472+37.1101+84.4916+36.9238+84.4263+36.744L85.0924+36.5021C85.1981+36.7929+85.3043+37.0236+85.4112+37.1943C85.518+37.3649+85.6277+37.4897+85.7401+37.5685C85.8525+37.6474+85.9719+37.6878+86.0983+37.6898C86.2247+37.6917+86.3566+37.6678+86.4941+37.6178C86.7954+37.5084+86.9901+37.3359+87.0782+37.1005C87.1662+36.865+87.1613+36.6125+87.0634+36.3429C86.9885+36.1367+86.8613+35.9719+86.6819+35.8486C86.5024+35.7252+86.2995+35.6568+86.0732+35.6432L86.0526+34.771C86.4659+34.7884+86.8137+34.918+87.0959+35.1596C87.3781+35.4012+87.5874+35.7097+87.7238+36.0851C87.8063+36.3124+87.8551+36.5415+87.8702+36.7725C87.8852+37.0034+87.8581+37.2212+87.7888+37.4259C87.7195+37.6306+87.6052+37.8142+87.4458+37.9769C87.2865+38.1395+87.0772+38.2678+86.8182+38.3619C86.5221+38.4694+86.2256+38.4769+85.9286+38.3843C85.6317+38.2916+85.389+38.1179+85.2008+37.8631L85.1849+37.8689C85.2165+38.0549+85.215+38.232+85.1804+38.4002C85.1457+38.5684+85.0822+38.7231+84.9899+38.8643C84.8975+39.0056+84.782+39.1283+84.6433+39.2326C84.5046+39.3368+84.3481+39.4206+84.1736+39.484C83.904+39.5819+83.6486+39.6163+83.4076+39.5871C83.1666+39.5579+82.9475+39.4819+82.7503+39.359C82.5531+39.2362+82.3793+39.0749+82.2289+38.8751C82.0786+38.6754+81.9583+38.4513+81.8681+38.2028C81.7125+37.7745+81.6735+37.3623+81.7511+36.9661C81.8286+36.5699+82.0558+36.2315+82.4327+35.951L82.9694+36.6627Z" opacity="1" fill="#dde3e7"/>
</g>
<g opacity="1">
<path d="M86.3051+46.9456L84.2001+46.0286L83.6126+47.3172C83.6532+47.3174+83.7085+47.3241+83.7785+47.3371C83.8484+47.3501+83.9185+47.3661+83.9888+47.3851C84.0591+47.4041+84.127+47.425+84.1927+47.4478C84.2584+47.4706+84.3133+47.4915+84.3573+47.5107C84.6018+47.6172+84.8049+47.7552+84.9667+47.9245C85.1285+48.0939+85.2473+48.2853+85.3231+48.4986C85.3989+48.712+85.4289+48.9403+85.413+49.1836C85.3972+49.4268+85.334+49.6756+85.2232+49.9298C85.1103+50.189+84.9604+50.4029+84.7735+50.5716C84.5865+50.7403+84.3769+50.8643+84.1447+50.9434C83.9124+51.0226+83.6687+51.0546+83.4135+51.0394C83.1583+51.0242+82.9036+50.9613+82.6493+50.8505C82.2973+50.6972+82.0189+50.4682+81.8141+50.1638C81.6093+49.8593+81.5193+49.5118+81.544+49.1212L82.3609+49.1891C82.3494+49.4691+82.399+49.6958+82.5097+49.8691C82.6203+50.0424+82.793+50.1801+83.0277+50.2824C83.1646+50.342+83.3061+50.3745+83.4521+50.3799C83.598+50.3854+83.736+50.3626+83.8658+50.3115C83.9957+50.2604+84.1163+50.1806+84.2276+50.072C84.3389+49.9635+84.4307+49.826+84.5031+49.6598C84.6693+49.2784+84.6772+48.943+84.527+48.6536C84.3767+48.3642+84.1158+48.1385+83.7442+47.9766C83.6122+47.9191+83.4346+47.8694+83.2114+47.8275C82.9883+47.7855+82.7695+47.7702+82.5552+47.7815L83.8056+45.0714L86.5926+46.2855L86.3051+46.9456Z" opacity="1" fill="#dde3e7"/>
</g>
<g opacity="1">
<path d="M58.9266+64.2265L58.8919+64.2408C58.7393+64.4118+58.533+64.5509+58.2729+64.6581C58.0534+64.7486+57.8154+64.8027+57.5591+64.8204C57.3028+64.8381+57.0508+64.8051+56.8033+64.7211C56.5558+64.6372+56.3237+64.4963+56.1069+64.2983C55.8902+64.1003+55.7127+63.8338+55.5746+63.4986C55.4365+63.1634+55.3708+62.8441+55.3776+62.5405C55.3843+62.2369+55.4473+61.9592+55.5666+61.7072C55.6858+61.4553+55.8541+61.2322+56.0715+61.0378C56.2888+60.8435+56.542+60.6868+56.8309+60.5677C57.1199+60.4487+57.4105+60.383+57.7029+60.3707C57.9952+60.3584+58.2725+60.3996+58.5346+60.4944C58.7967+60.5892+59.0341+60.7347+59.2468+60.931C59.4595+61.1273+59.6277+61.3757+59.7516+61.6762C59.8301+61.8668+59.8871+62.0462+59.9225+62.2141C59.9579+62.382+59.9773+62.5481+59.9808+62.7123C59.9842+62.8765+59.9769+63.0434+59.959+63.213C59.941+63.3827+59.9155+63.5588+59.8826+63.7413L59.3418+66.8337L58.3623+67.2373L58.9266+64.2265ZM58.9301+62.045C58.854+61.8601+58.7534+61.7021+58.6284+61.5711C58.5034+61.4401+58.3614+61.3415+58.2023+61.2752C58.0432+61.2089+57.8725+61.1762+57.6903+61.1769C57.5081+61.1776+57.3216+61.2173+57.1309+61.2958C56.9402+61.3744+56.78+61.4776+56.6501+61.6055C56.5203+61.7333+56.4223+61.8768+56.356+62.0359C56.2898+62.1951+56.2584+62.3651+56.262+62.5462C56.2657+62.7272+56.3056+62.9101+56.3818+63.0951C56.4579+63.28+56.5585+63.438+56.6835+63.569C56.8085+63.7+56.9505+63.7986+57.1096+63.8649C57.2687+63.9311+57.4394+63.9639+57.6216+63.9632C57.8038+63.9625+57.9903+63.9228+58.181+63.8442C58.3717+63.7657+58.5319+63.6625+58.6618+63.5346C58.7916+63.4067+58.8896+63.2633+58.9559+63.1041C59.0221+62.945+59.0535+62.775+59.0499+62.5939C59.0462+62.4129+59.0063+62.2299+58.9301+62.045Z" opacity="1" fill="#dde3e7"/>
</g>
<g opacity="1">
<path d="M70.9505+64.5282L70.9137+64.5213C70.6925+64.5814+70.4437+64.5854+70.1673+64.5334C69.9339+64.4895+69.7049+64.405+69.4804+64.2801C69.2559+64.1551+69.0628+63.99+68.9012+63.7847C68.7395+63.5793+68.6218+63.3346+68.5481+63.0504C68.4744+62.7662+68.4711+62.446+68.5382+62.0898C68.6052+61.7336+68.7244+61.43+68.8956+61.1793C69.0669+60.9285+69.2712+60.7301+69.5085+60.584C69.7459+60.4379+70.0087+60.3426+70.2969+60.2983C70.5851+60.254+70.8827+60.2608+71.1898+60.3186C71.4969+60.3764+71.7763+60.4799+72.0281+60.629C72.2798+60.7782+72.4897+60.964+72.6577+61.1864C72.8257+61.4088+72.9453+61.6603+73.0165+61.9408C73.0877+62.2213+73.0932+62.5213+73.0331+62.8407C72.9949+63.0434+72.9449+63.2247+72.883+63.3848C72.821+63.5448+72.7467+63.6946+72.66+63.8341C72.5734+63.9736+72.4762+64.1096+72.3686+64.2419C72.261+64.3743+72.1436+64.508+72.0164+64.6431L69.8764+66.9399L68.8353+66.7439L70.9505+64.5282ZM72.1434+62.7018C72.1804+62.5053+72.1823+62.318+72.149+62.14C72.1158+61.962+72.0505+61.8019+71.9533+61.6596C71.8561+61.5172+71.7309+61.3967+71.5778+61.2979C71.4247+61.1991+71.2468+61.1306+71.0441+61.0925C70.8414+61.0543+70.6508+61.0534+70.4722+61.0897C70.2937+61.1261+70.1332+61.1929+69.9909+61.2901C69.8486+61.3873+69.7296+61.5128+69.6339+61.6665C69.5381+61.8202+69.4718+61.9953+69.4348+62.1918C69.3978+62.3884+69.3959+62.5756+69.4292+62.7536C69.4624+62.9316+69.5277+63.0917+69.6249+63.2341C69.7221+63.3764+69.8473+63.4969+70.0004+63.5957C70.1535+63.6945+70.3314+63.763+70.5341+63.8011C70.7368+63.8393+70.9274+63.8402+71.106+63.8039C71.2845+63.7675+71.445+63.7008+71.5873+63.6035C71.7296+63.5063+71.8486+63.3809+71.9444+63.2272C72.0401+63.0735+72.1064+62.8983+72.1434+62.7018Z" opacity="1" fill="#dde3e7"/>
</g>
<g opacity="1">
<path d="M94.2541+65.6545C93.9566+65.6158+93.682+65.5344+93.4303+65.4102C93.1786+65.2861+92.968+65.1248+92.7984+64.9262C92.6288+64.7277+92.5044+64.4972+92.4251+64.2348C92.3458+63.9724+92.3263+63.6862+92.3666+63.3763C92.3932+63.1718+92.4503+62.987+92.538+62.8219C92.6256+62.6569+92.7343+62.5119+92.864+62.3869C92.9937+62.262+93.1407+62.1614+93.3051+62.085C93.4694+62.0087+93.6447+61.9575+93.8309+61.9313L93.8345+61.9034C93.7146+61.8563+93.5979+61.7844+93.4844+61.6877C93.3709+61.591+93.2742+61.4744+93.1943+61.3379C93.1143+61.2015+93.0548+61.0409+93.0158+60.8562C92.9768+60.6715+92.9723+60.4645+93.0021+60.2352C93.0343+59.9873+93.1147+59.7693+93.2432+59.5811C93.3716+59.393+93.5334+59.2392+93.7286+59.1196C93.9238+59+94.1426+58.9166+94.3851+58.8694C94.6276+58.8221+94.879+58.8154+95.1393+58.8493C95.3996+58.8832+95.641+58.9539+95.8633+59.0616C96.0856+59.1693+96.2759+59.306+96.434+59.4715C96.592+59.637+96.7091+59.8271+96.7852+60.0419C96.8612+60.2566+96.8832+60.4879+96.8509+60.7358C96.8211+60.9652+96.7637+61.1641+96.6787+61.3327C96.5938+61.5012+96.4952+61.6413+96.383+61.7527C96.2708+61.8642+96.1475+61.9521+96.0131+62.0166C95.8786+62.081+95.7474+62.1207+95.6194+62.1356L95.6158+62.1634C95.7891+62.2364+95.9454+62.3308+96.0848+62.4466C96.2241+62.5624+96.3405+62.6973+96.4339+62.8513C96.5273+63.0052+96.5953+63.1732+96.6378+63.3552C96.6803+63.5372+96.6883+63.7305+96.6617+63.935C96.6214+64.2449+96.5293+64.5166+96.3855+64.75C96.2417+64.9834+96.0624+65.1743+95.8477+65.3229C95.633+65.4714+95.3881+65.5735+95.113+65.6291C94.8379+65.6847+94.5516+65.6932+94.2541+65.6545ZM93.8776+60.4814C93.8607+60.6116+93.8674+60.7417+93.8978+60.8717C93.9281+61.0017+93.9805+61.1203+94.0547+61.2277C94.129+61.3351+94.2256+61.428+94.3446+61.5065C94.4636+61.585+94.6068+61.6351+94.7741+61.6569C94.9477+61.6795+95.1018+61.6696+95.2365+61.6272C95.3712+61.5849+95.4882+61.5213+95.5875+61.4365C95.6867+61.3518+95.7661+61.2502+95.8256+61.1319C95.8851+61.0136+95.9238+60.8862+95.9415+60.7499C95.981+60.4462+95.9189+60.1844+95.7553+59.9646C95.5917+59.7448+95.3549+59.6147+95.045+59.5744C94.7599+59.5374+94.5042+59.6018+94.2777+59.7677C94.0513+59.9336+93.9179+60.1715+93.8776+60.4814ZM94.3557+64.8735C94.7276+64.9219+95.0444+64.8481+95.3063+64.6521C95.5681+64.4561+95.7224+64.1784+95.7692+63.8189C95.795+63.6206+95.7852+63.4413+95.7399+63.281C95.6946+63.1207+95.6212+62.9819+95.5199+62.8647C95.4185+62.7476+95.2953+62.6528+95.1503+62.5803C95.0053+62.5079+94.8461+62.4604+94.6725+62.4378C94.3061+62.3964+93.9904+62.4736+93.7254+62.6691C93.4605+62.8647+93.305+63.1392+93.2591+63.4924C93.2341+63.6846+93.2458+63.861+93.2942+64.0217C93.3426+64.1824+93.4175+64.3214+93.5189+64.4385C93.6203+64.5557+93.7432+64.6521+93.8878+64.7276C94.0324+64.8031+94.1884+64.8518+94.3557+64.8735Z" opacity="1" fill="#dde3e7"/>
</g>
<g opacity="1">
<path d="M96.8393+48.2076L96.8148+48.1793C96.6041+48.0891+96.4065+47.9378+96.2222+47.7254C96.0665+47.546+95.9395+47.3376+95.8411+47.1003C95.7427+46.8629+95.6938+46.6136+95.6946+46.3523C95.6954+46.0909+95.7551+45.826+95.8738+45.5575C95.9924+45.289+96.1887+45.0359+96.4624+44.7983C96.7362+44.5607+97.0181+44.3968+97.308+44.3065C97.5979+44.2163+97.8813+44.1876+98.1581+44.2204C98.4349+44.2533+98.7+44.3418+98.9534+44.486C99.2068+44.6302+99.4359+44.8203+99.6408+45.0563C99.8456+45.2924+100+45.547+100.105+45.8202C100.21+46.0934+100.259+46.3694+100.253+46.6481C100.246+46.9267+100.184+47.1981+100.065+47.4622C99.947+47.7263+99.7651+47.9649+99.5197+48.1779C99.3639+48.3131+99.212+48.4242+99.0641+48.5112C98.9162+48.5982+98.7649+48.6695+98.6104+48.725C98.4558+48.7805+98.2953+48.8267+98.1287+48.8637C97.9622+48.9007+97.7871+48.9326+97.6036+48.9595L94.4999+49.4311L93.8055+48.631L96.8393+48.2076ZM98.9085+47.5166C99.0596+47.3855+99.1773+47.2399+99.2617+47.0797C99.3462+46.9196+99.3945+46.7535+99.4066+46.5816C99.4188+46.4097+99.3955+46.2374+99.3368+46.0649C99.2781+45.8924+99.1812+45.7283+99.046+45.5725C98.9108+45.4167+98.762+45.2977+98.5994+45.2153C98.4369+45.1329+98.2697+45.0856+98.0978+45.0735C97.9258+45.0613+97.7546+45.0858+97.5842+45.1468C97.4137+45.2078+97.253+45.3039+97.1019+45.435C96.9509+45.5661+96.8331+45.7117+96.7487+45.8719C96.6643+46.0321+96.616+46.1981+96.6038+46.37C96.5916+46.542+96.6149+46.7142+96.6736+46.8867C96.7323+47.0592+96.8292+47.2233+96.9644+47.3791C97.0996+47.5349+97.2484+47.654+97.411+47.7363C97.5735+47.8187+97.7407+47.866+97.9127+47.8782C98.0846+47.8903+98.2558+47.8659+98.4262+47.8048C98.5967+47.7438+98.7575+47.6477+98.9085+47.5166Z" opacity="1" fill="#dde3e7"/>
</g>
<g opacity="1">
<path d="M71.4669+30.3856L70.0742+29.8484L70.3728+29.1749L72.3407+30.0592L72.6573+30.7027L67.2972+33.3399L66.9396+32.6131L71.4669+30.3856Z" opacity="1" fill="#dde3e7"/>
</g>
<g opacity="1">
<path d="M44.0952+23.5187L45.2229+22.2172L44.4321+21.5082C44.4228+21.5372+44.4057+21.5753+44.3807+21.6224C44.3557+21.6696+44.3286+21.7162+44.2992+21.7623C44.2699+21.8083+44.2398+21.8523+44.2087+21.8942C44.1777+21.9361+44.1504+21.9707+44.1268+21.9979C43.9959+22.1491+43.8516+22.2636+43.6942+22.3415C43.5367+22.4194+43.3731+22.4616+43.2034+22.468C43.0337+22.4745+42.8636+22.4448+42.693+22.3791C42.5224+22.3133+42.3585+22.2123+42.2013+22.0761C42.0411+21.9373+41.9215+21.7821+41.8426+21.6105C41.7637+21.4389+41.7219+21.2611+41.7173+21.0771C41.7126+20.8931+41.7443+20.7115+41.8123+20.5323C41.8803+20.353+41.9824+20.1848+42.1186+20.0276C42.3072+19.8099+42.5334+19.6619+42.7972+19.5835C43.0609+19.505+43.3299+19.5184+43.6039+19.6236L43.3725+20.1931C43.1746+20.1222+43.0012+20.1069+42.8524+20.1474C42.7036+20.1878+42.5663+20.2805+42.4406+20.4256C42.3672+20.5103+42.3123+20.6043+42.2757+20.7075C42.2391+20.8108+42.2246+20.9146+42.2321+21.019C42.2395+21.1234+42.2697+21.2276+42.3225+21.3316C42.3753+21.4356+42.4531+21.5321+42.5559+21.6211C42.7917+21.8254+43.03+21.9062+43.2708+21.8635C43.5116+21.8207+43.7315+21.6845+43.9306+21.4547C44.0013+21.3731+44.0767+21.2571+44.1567+21.1068C44.2366+20.9564+44.2966+20.8033+44.3365+20.6473L45.9964+22.1491L44.5034+23.8723L44.0952+23.5187Z" opacity="1" fill="#dde3e7"/>
</g>
<g opacity="1">
<path d="M110.367+21.597L110.346+21.6189C110.292+21.794+110.188+21.9636+110.034+22.1278C109.904+22.2665+109.749+22.3847+109.568+22.4826C109.387+22.5805+109.193+22.6399+108.985+22.6608C108.777+22.6817+108.561+22.656+108.337+22.5837C108.114+22.5114+107.897+22.3761+107.685+22.1778C107.47+21.9761+107.314+21.7636+107.218+21.5404C107.123+21.3171+107.077+21.094+107.08+20.871C107.083+20.648+107.133+20.4306+107.228+20.2188C107.324+20.007+107.457+19.8099+107.628+19.6274C107.799+19.445+107.989+19.3008+108.198+19.195C108.407+19.0891+108.622+19.0273+108.845+19.0094C109.067+18.9916+109.288+19.0189+109.508+19.0913C109.728+19.1637+109.933+19.2888+110.122+19.4666C110.243+19.5794+110.344+19.6911+110.425+19.8016C110.506+19.9122+110.576+20.0266+110.633+20.1451C110.689+20.2635+110.739+20.3866+110.78+20.5143C110.821+20.6421+110.862+20.7796+110.902+20.9269L111.533+23.3578L110.954+23.9762L110.367+21.597ZM109.646+20.0074C109.53+19.898+109.404+19.8163+109.27+19.7623C109.135+19.7083+108.999+19.6836+108.861+19.6881C108.724+19.6926+108.588+19.7253+108.456+19.7862C108.324+19.8471+108.201+19.9378+108.088+20.0582C107.975+20.1786+107.893+20.3068+107.841+20.443C107.788+20.5791+107.765+20.716+107.769+20.8539C107.774+20.9917+107.807+21.1259+107.87+21.2565C107.932+21.3871+108.022+21.5071+108.139+21.6165C108.256+21.7259+108.381+21.8076+108.516+21.8616C108.65+21.9156+108.786+21.9403+108.924+21.9358C109.062+21.9313+109.197+21.8986+109.329+21.8377C109.462+21.7768+109.584+21.6861+109.697+21.5657C109.81+21.4453+109.892+21.3171+109.945+21.1809C109.997+21.0448+110.021+20.9079+110.016+20.77C110.012+20.6322+109.978+20.498+109.915+20.3674C109.853+20.2368+109.763+20.1168+109.646+20.0074Z" opacity="1" fill="#dde3e7"/>
</g>
<g opacity="1">
<path d="M119.987+11.4642C119.856+11.6988+119.792+11.9109+119.796+12.1004C119.799+12.2899+119.896+12.4881+120.084+12.695C120.179+12.7985+120.285+12.8794+120.402+12.938C120.52+12.9965+120.641+13.033+120.766+13.0476C120.891+13.0623+121.015+13.0503+121.139+13.0118C121.263+12.9732+121.379+12.9051+121.486+12.8074C121.648+12.6592+121.748+12.5062+121.783+12.3486C121.819+12.191+121.813+12.0359+121.765+11.8832C121.717+11.7306+121.641+11.5829+121.538+11.4401C121.435+11.2973+121.326+11.1631+121.212+11.0375L121.677+10.613C121.863+10.8162+122.028+10.9699+122.174+11.0739C122.319+11.1779+122.452+11.2433+122.571+11.2701C122.69+11.2968+122.802+11.2895+122.906+11.2484C123.011+11.2072+123.111+11.1428+123.207+11.0552C123.418+10.8631+123.519+10.6555+123.512+10.4322C123.504+10.2088+123.415+10.003+123.243+9.81454C123.112+9.67045+122.951+9.57812+122.762+9.53754C122.573+9.49696+122.383+9.50944+122.192+9.57498L121.88+8.86512C122.226+8.73947+122.555+8.72812+122.869+8.83107C123.183+8.93402+123.459+9.11665+123.698+9.37896C123.843+9.53783+123.961+9.7096+124.052+9.89428C124.142+10.079+124.194+10.2671+124.206+10.4588C124.219+10.6505+124.187+10.8402+124.111+11.0278C124.035+11.2154+123.907+11.3918+123.726+11.5569C123.519+11.7455+123.277+11.8521+123.002+11.8766C122.727+11.901+122.468+11.8405+122.227+11.6949L122.216+11.705C122.305+11.8471+122.364+11.9932+122.392+12.1431C122.421+12.2931+122.421+12.4417+122.393+12.5891C122.365+12.7365+122.312+12.8765+122.233+13.0091C122.154+13.1417+122.054+13.2636+121.932+13.3748C121.744+13.5466+121.546+13.6614+121.338+13.719C121.13+13.7767+120.924+13.7884+120.72+13.7543C120.517+13.7201+120.319+13.6464+120.128+13.5332C119.937+13.42+119.762+13.2765+119.604+13.1029C119.331+12.8036+119.159+12.4781+119.088+12.1262C119.018+11.7743+119.09+11.4193+119.305+11.0611L119.987+11.4642Z" opacity="1" fill="#dde3e7"/>
</g>
<g opacity="1">
<path d="M57.6363+21.6295L60.6343+21.7783C60.7366+21.7865+60.8418+21.7887+60.9499+21.7849C61.058+21.781+61.1639+21.7691+61.2675+21.7491C61.371+21.7291+61.4707+21.6974+61.5665+21.654C61.6623+21.6107+61.7508+21.5519+61.8321+21.4778C61.9281+21.3902+61.999+21.2935+62.0445+21.1876C62.0901+21.0818+62.1119+20.974+62.1099+20.8642C62.1079+20.7543+62.0837+20.6444+62.0375+20.5343C61.9913+20.4242+61.926+20.323+61.8418+20.2307C61.6666+20.0385+61.4682+19.9285+61.2465+19.9006C61.0248+19.8727+60.8046+19.928+60.5858+20.0666L60.1101+19.4447C60.3074+19.3123+60.5043+19.2258+60.7008+19.1853C60.8973+19.1448+61.0894+19.1422+61.2772+19.1773C61.4649+19.2125+61.6456+19.2846+61.8193+19.3935C61.993+19.5023+62.1574+19.6418+62.3124+19.8117C62.4673+19.9817+62.59+20.1625+62.6802+20.3542C62.7705+20.546+62.8217+20.7395+62.834+20.9347C62.8462+21.1299+62.8144+21.3213+62.7385+21.509C62.6626+21.6966+62.5341+21.8729+62.3531+22.038C62.2238+22.1559+62.0851+22.2469+61.937+22.3108C61.789+22.3748+61.6364+22.4209+61.4794+22.449C61.3224+22.4772+61.1625+22.491+60.9997+22.4906C60.8369+22.4902+60.6726+22.4844+60.5068+22.4732L58.0824+22.319L59.8814+24.2919L59.4159+24.7164L57.0711+22.1449L57.6363+21.6295Z" opacity="1" fill="#dde3e7"/>
</g>
<g opacity="1">
<path d="M100.385+34.986L99.8865+32.1437L100.585+32.0213L101.233+35.7196L100.551+35.8391L94.938+34.4074L94.7807+33.5099L100.385+34.986Z" opacity="1" fill="#dde3e7"/>
</g>
<g opacity="1">
<path d="M79.4821+23.4227L80.6567+24.895L81.5769+24.186C81.5476+24.1702+81.51+24.1442+81.4643+24.1079C81.4186+24.0717+81.3739+24.0332+81.3302+23.9925C81.2865+23.9517+81.2452+23.9105+81.2064+23.8688C81.1675+23.8271+81.1357+23.7908+81.1112+23.76C80.9748+23.589+80.8804+23.4111+80.828+23.2262C80.7756+23.0413+80.7629+22.857+80.7898+22.6732C80.8167+22.4894+80.8825+22.3124+80.9873+22.1421C81.0921+21.9717+81.2334+21.8156+81.4112+21.6738C81.5925+21.5291+81.7832+21.4315+81.9835+21.3809C82.1838+21.3303+82.3833+21.3208+82.5821+21.3525C82.7809+21.3842+82.9699+21.4545+83.1491+21.5634C83.3283+21.6722+83.4888+21.8156+83.6307+21.9934C83.8271+22.2397+83.9412+22.5125+83.9729+22.8118C84.0046+23.1111+83.9366+23.3976+83.7688+23.6714L83.2026+23.3088C83.3183+23.1101+83.3693+22.9268+83.3555+22.7587C83.3417+22.5906+83.2694+22.4244+83.1384+22.2603C83.062+22.1645+82.9719+22.0867+82.8681+22.0267C82.7644+21.9668+82.6556+21.9305+82.5419+21.9177C82.4281+21.9049+82.3101+21.9165+82.1877+21.9525C82.0654+21.9886+81.946+22.053+81.8298+22.1458C81.563+22.3586+81.4286+22.5987+81.4265+22.8662C81.4245+23.1337+81.5271+23.3974+81.7345+23.6574C81.8081+23.7497+81.9178+23.8539+82.0635+23.9699C82.2093+24.0859+82.362+24.1809+82.5218+24.2549L80.5756+25.7404L79.0204+23.791L79.4821+23.4227Z" opacity="1" fill="#dde3e7"/>
</g>
<g opacity="1">
<path d="M95.2141+20.4745L95.2258+20.4469C95.2164+20.2637+95.2556+20.0686+95.3432+19.8613C95.4173+19.6864+95.5222+19.5217+95.6581+19.3675C95.7939+19.2132+95.9558+19.0903+96.1438+18.9989C96.3318+18.9074+96.5432+18.857+96.7778+18.8477C97.0125+18.8384+97.2634+18.8903+97.5304+19.0033C97.7975+19.1162+98.0145+19.261+98.1815+19.4375C98.3484+19.614+98.4688+19.8074+98.5426+20.0178C98.6165+20.2282+98.6462+20.4498+98.6319+20.6826C98.6175+20.9155+98.5617+21.147+98.4643+21.3772C98.3668+21.6075+98.2384+21.8083+98.079+21.9797C97.9196+22.1512+97.7387+22.2837+97.5363+22.3772C97.3339+22.4707+97.1169+22.5214+96.8855+22.5294C96.6542+22.5374+96.4187+22.4907+96.1793+22.3894C96.0273+22.3251+95.894+22.2552+95.7795+22.1795C95.6649+22.1039+95.5604+22.0204+95.4661+21.9289C95.3718+21.8374+95.282+21.7383+95.1969+21.6317C95.1117+21.5251+95.0271+21.4106+94.9431+21.2882L93.5115+19.2248L93.8417+18.4443L95.2141+20.4745ZM96.4391+21.7175C96.5865+21.7799+96.7325+21.8132+96.8773+21.8174C97.0221+21.8217+97.1584+21.7979+97.2862+21.7461C97.414+21.6943+97.5295+21.6169+97.6327+21.514C97.736+21.4111+97.8198+21.2837+97.884+21.1317C97.9483+20.9798+97.9815+20.8309+97.9834+20.6852C97.9854+20.5394+97.9604+20.4026+97.9086+20.2749C97.8568+20.1471+97.779+20.0327+97.6751+19.9317C97.5712+19.8308+97.4456+19.7491+97.2983+19.6868C97.1509+19.6245+97.0048+19.5912+96.86+19.5869C96.7153+19.5827+96.579+19.6064+96.4512+19.6582C96.3234+19.7101+96.2079+19.7874+96.1046+19.8903C96.0014+19.9932+95.9176+20.1206+95.8533+20.2726C95.789+20.4246+95.7559+20.5734+95.754+20.7192C95.752+20.8649+95.7769+21.0017+95.8287+21.1295C95.8805+21.2573+95.9584+21.3716+96.0623+21.4726C96.1661+21.5735+96.2917+21.6552+96.4391+21.7175Z" opacity="1" fill="#dde3e7"/>
</g>
</g>
</svg>
