<?xml version="1.0" encoding="UTF-8"?>
<svg width="224px" height="224px" viewBox="0 0 224 224" xmlns="http://www.w3.org/2000/svg" xmlns:xlink="http://www.w3.org/1999/xlink" version="1.1">
 <!-- Generated by Pixelmator Pro 1.8 -->
 <g id="Background"/>
 <g id="Logo-bw">
  <path id="Path" d="M219 119.003 L219 149.003 C219 154.003 219 154.003 214 157.003 L119 214.003 C114 217.003 113 217.003 112 217.003 111 217.003 110 217.003 105 214.003 L10 157.003 C5 154.003 5 154.003 5 149.003 L5 119.003 C5 124.003 5 124.003 10 127.003 L105 184.003 C110 187.003 111 187.003 112 187.003 113 187.003 114 187.003 119 184.003 L214 127.003 C219 124.003 219 124.003 219 119.003 Z" fill="#e5e5e5" fill-opacity="1" stroke="none"/>
  <path id="Path-1" d="M219 74.003 L219 108.003 C219 113.003 219 113.003 214 116.003 L119 173.003 C114 176.003 113 176.003 112 176.003 111 176.003 110 176.003 105 173.003 L10 116.003 C5 113.003 5 113.003 5 108.003 L5 74.003 C5 75.003 5 79.003 10 82.003 L105 139.003 C110 142.003 111 142.003 112 142.003 113 142.003 114 142.003 119 139.003 L214 82.003 C219 79.003 219 75.003 219 74.003 Z" fill="#7b7b7b" fill-opacity="1" stroke="none"/>
  <path id="Path-2" d="M219 74.003 C219 73.003 219 108.003 219 108.003 219 113.003 219 113.003 214 116.003 L119 173.003 C114 176.003 113 176.003 112 176.003 L112 142.003 C113 142.003 114 142.003 119 139.003 L214 82.003 C219 79.003 219 75.003 219 74.003 Z" fill="#5a5a5a" fill-opacity="1" stroke="none"/>
  <path id="Path-3" d="M10 66.003 L105 9.003 C110 6.003 111.013 5.982 112 6.003 113.013 6.024 114 6.003 119 9.003 L214 66.003 C219 69.003 219 74.003 219 74.003 219 74.003 219 79.003 214 82.003 L119 139.003 C114 142.003 113 142.003 112 142.003 111 142.003 110 142.003 105 139.003 L10 82.003 C5 79.003 5 75.003 5 74.003 5 73.003 5 69.003 10 66.003 Z M42 74.003 L112 116.003 182 74.003 112 32.003 Z" fill="#bababa" fill-opacity="1" stroke="none"/>
  <path id="Path-4" d="M112 6.003 C113 6.003 114 6.003 119 9.003 L214 66.003 C219 69.003 219 73.003 219 74.003 219 75.003 219 79.003 214 82.003 L119 139.003 C114 142.003 113 142.003 112 142.003 L112 116.003 182 74.003 112 32.003 Z" fill="#8d8d8d" fill-opacity="1" stroke="none"/>
 </g>
 <g id="Logo-copy">
  <path id="Path-5" d="M219 119.003 L219 149.003 C219 154.003 219 154.003 214 157.003 L119 214.003 C114 217.003 113 217.003 112 217.003 111 217.003 110 217.003 105 214.003 L10 157.003 C5 154.003 5 154.003 5 149.003 L5 119.003 C5 124.003 5 124.003 10 127.003 L105 184.003 C110 187.003 111 187.003 112 187.003 113 187.003 114 187.003 119 184.003 L214 127.003 C219 124.003 219 124.003 219 119.003 Z" fill="#e59215" fill-opacity="1" stroke="none"/>
  <path id="Path-6" d="M219 74.003 L219 108.003 C219 113.003 219 113.003 214 116.003 L119 173.003 C114 176.003 113 176.003 112 176.003 111 176.003 110 176.003 105 173.003 L10 116.003 C5 113.003 5 113.003 5 108.003 L5 74.003 C5 75.003 5 79.003 10 82.003 L105 139.003 C110 142.003 111 142.003 112 142.003 113 142.003 114 142.003 119 139.003 L214 82.003 C219 79.003 219 75.003 219 74.003 Z" fill="#26587b" fill-opacity="1" stroke="none"/>
  <path id="Path-7" d="M219 74.003 C219 73.003 219 108.003 219 108.003 219 113.003 219 113.003 214 116.003 L119 173.003 C114 176.003 113 176.003 112 176.003 L112 142.003 C113 142.003 114 142.003 119 139.003 L214 82.003 C219 79.003 219 75.003 219 74.003 Z" fill="#1a415a" fill-opacity="1" stroke="none"/>
  <path id="Path-8" d="M10 66.003 L105 9.003 C110 6.003 111.013 5.982 112 6.003 113.013 6.024 114 6.003 119 9.003 L214 66.003 C219 69.003 219 74.003 219 74.003 219 74.003 219 79.003 214 82.003 L119 139.003 C114 142.003 113 142.003 112 142.003 111 142.003 110 142.003 105 139.003 L10 82.003 C5 79.003 5 75.003 5 74.003 5 73.003 5 69.003 10 66.003 Z M42 74.003 L112 116.003 182 74.003 112 32.003 Z" fill="#5b9bba" fill-opacity="1" stroke="none"/>
  <path id="Path-9" d="M112 6.003 C113 6.003 114 6.003 119 9.003 L214 66.003 C219 69.003 219 73.003 219 74.003 219 75.003 219 79.003 214 82.003 L119 139.003 C114 142.003 113 142.003 112 142.003 L112 116.003 182 74.003 112 32.003 Z" fill="#38728d" fill-opacity="1" stroke="none"/>
 </g>
 <g id="Top">
  <path id="Path-10" d="M98 97.003 L103 100.003 143 76.003 138 73.003 Z" fill="#e59215" fill-opacity="1" stroke="none"/>
  <path id="Path-11" d="M117 73.003 L88 91.003 83 88.003 113 70.003 Z" fill="#e59215" fill-opacity="1" stroke="none"/>
  <path id="Path-12" d="M148 70.003 L122 67.003 123 64.003 149 67.003 Z" fill="#e59215" fill-opacity="1" stroke="none"/>
  <path id="Path-13" d="M88 73.003 L73 82.003 68 79.003 83 70.003 Z" fill="#e59215" fill-opacity="1" stroke="none"/>
  <path id="Path-14" d="M122 67.003 L93 67.003 94 64.003 123 64.003 Z" fill="#e59215" fill-opacity="1" stroke="none"/>
  <path id="Path-15" d="M144 68.503 C144 66.017 146.015 64.003 148.5 64.003 150.985 64.003 153 66.017 153 68.503 153 70.988 150.985 73.003 148.5 73.003 146.015 73.003 144 70.988 144 68.503 Z" fill="#e59215" fill-opacity="1" stroke="none"/>
  <path id="Path-16" d="M118 65.503 C118 63.017 120.015 61.003 122.5 61.003 124.985 61.003 127 63.017 127 65.503 127 67.988 124.985 70.003 122.5 70.003 120.015 70.003 118 67.988 118 65.503 Z" fill="#e59215" fill-opacity="1" stroke="none"/>
  <path id="Path-17" d="M89 65.503 C89 63.017 91.015 61.003 93.5 61.003 95.985 61.003 98 63.017 98 65.503 98 67.988 95.985 70.003 93.5 70.003 91.015 70.003 89 67.988 89 65.503 Z" fill="#e59215" fill-opacity="1" stroke="none"/>
 </g>
</svg>
